<svg width="226" height="226" viewBox="0 0 226 226" fill="none" xmlns="http://www.w3.org/2000/svg">
<g clip-path="url(#clip0_3_8351)">
<path d="M138.701 124.173C138.704 125.574 138.707 126.975 138.712 128.376C138.734 134.596 138.759 140.816 138.783 147.036C169.702 150.354 191.549 158.477 191.549 167.974V145.12C191.55 135.614 169.664 127.486 138.701 124.173Z" fill="#CFC1E7"/>
<path d="M190.905 150.964C190.763 150.011 190.348 149.282 189.607 148.664C188.893 148.068 188.12 147.643 187.255 147.311C185.419 146.605 183.362 146.612 181.426 146.726C179.445 146.842 177.605 146.996 175.714 146.504C175.533 146.457 175.354 146.407 175.177 146.349C174.943 146.272 174.875 146.24 174.807 146.207C174.614 146.115 174.425 146.016 174.239 145.908C174.133 145.847 174.03 145.781 173.926 145.717C173.899 145.701 173.838 145.657 173.806 145.634C173.509 145.399 173.231 145.11 173 144.809C172.984 144.776 172.81 144.518 172.781 144.472C172.655 144.271 172.537 144.064 172.425 143.854C171.584 142.273 171.055 140.515 169.942 139.09C168.93 137.795 167.574 136.776 166.141 136.005C163.143 134.394 159.684 133.966 156.344 134.451C154.103 134.776 151.883 135.407 149.734 136.111C147.468 136.852 145.19 137.518 143.028 138.536C142.203 138.924 141.967 140.088 142.393 140.837C142.848 141.637 143.896 141.917 144.695 141.471C146.42 140.509 147.97 139.253 149.725 138.35C151.475 137.45 153.257 136.729 155.198 136.362C158.243 135.787 161.669 136.193 164.375 137.753C165.683 138.506 166.614 139.408 167.339 140.654C168.228 142.181 168.615 143.566 169.378 145.171C170.158 146.814 171.363 148.344 173.057 149.103C174.8 149.884 176.6 149.989 178.48 149.846C180.662 149.679 182.991 149.009 185.178 149.385C186.9 149.681 188.179 150.593 189.328 151.869C190.015 152.63 191.03 151.802 190.905 150.964Z" fill="url(#paint0_linear_3_8351)"/>
<path d="M191.549 145.279V168.133C191.549 175.717 177.618 182.427 156.261 186.508C156.256 180.826 156.251 175.144 156.218 169.462C156.208 167.531 156.199 165.6 156.189 163.669C177.585 159.588 191.549 152.873 191.549 145.279Z" fill="url(#paint1_linear_3_8351)"/>
<path d="M191.549 156.171V158.116C189.977 158.967 188.663 160.424 187.583 161.762C185.857 163.894 184.548 166.326 182.875 168.496C181.327 170.503 179.434 172.329 177.116 173.409C174.67 174.551 172.036 174.742 169.417 174.131C166.803 173.524 164.514 172.018 162.32 170.527C161.589 170.026 161.241 169.118 161.709 168.295C162.115 167.583 163.214 167.172 163.936 167.679C165.121 168.515 166.321 169.342 167.587 170.049C168.748 170.694 170 171.349 171.315 171.602C176.204 172.549 179.554 167.421 181.924 164.085C183.492 161.881 185.088 159.716 187.291 158.111C188.558 157.184 190.02 156.539 191.549 156.171Z" fill="#CFC1E7"/>
<path d="M89.3803 140.866C99.4816 137.16 109.479 105.454 109.479 105.454L98.324 95.476L83.4555 129.365L89.3803 140.866Z" fill="#FFD9A8"/>
<path d="M85.3968 226C85.7155 226 86.0346 225.996 86.3532 225.996C95.0036 225.993 103.654 225.988 112.304 225.987C112.356 225.505 112.408 225.018 112.461 224.538C115 201.304 117.688 180.188 119.099 169.438C119.719 164.707 120.09 161.982 120.09 161.982L100.373 142.241C86.9734 150.75 84.5457 198.691 85.1771 219.237C85.2364 221.181 85.3105 223.467 85.3968 226Z" fill="#6E4BA6"/>
<path d="M107.024 215.447C107.879 217.837 109.848 221.528 112.461 224.538C115 201.304 117.688 180.188 119.099 169.438C117.749 168.311 116.325 167.283 114.901 166.404C113.551 173.401 109.13 179.247 107.197 186.096C104.696 195 103.866 206.654 107.024 215.447Z" fill="#5D408C"/>
<path d="M94.4404 225.994C95.0773 217.478 95.6102 208.955 96.1205 200.43C96.6466 191.639 97.1728 182.847 97.6993 174.056C97.764 172.977 96.0875 172.983 96.0242 174.056C95.7322 179.01 95.4407 183.964 95.1487 188.917C94.6307 197.708 94.1037 206.498 93.6282 215.291C93.4352 218.858 93.2883 222.425 93.1509 225.994C93.5803 225.994 94.0106 225.994 94.4404 225.994Z" fill="#5D408C"/>
<path d="M143.743 225.985C147.803 225.985 151.863 225.985 155.924 225.985C151.031 203.719 141.413 162.219 135.498 148.75L110.072 167.851C110.77 173.826 119.492 198.966 129.04 225.986L143.743 225.985Z" fill="#6E4BA6"/>
<path d="M127.285 182.402C127.863 184.838 128.454 187.27 129.06 189.7C131.227 198.4 133.554 207.063 136.122 215.655C137.152 219.102 138.204 222.551 139.3 225.985H140.751C138.263 217.592 135.865 209.172 133.608 200.712C132.456 196.398 131.348 192.071 130.283 187.735C129.751 185.567 129.229 183.395 128.718 181.222C128.208 179.051 127.779 176.849 127.186 174.699C126.915 173.716 125.419 173.942 125.601 174.98C126.038 177.472 126.7 179.94 127.285 182.402Z" fill="#5D408C"/>
<path d="M91.2769 158.02C97.0435 139.14 107.731 134.089 107.731 134.089L130.969 138.666C130.969 138.666 136.947 145.584 143.274 173.249L91.2769 158.02Z" fill="#6E4BA6"/>
<path d="M83.4564 129.361L96.4726 131.367L105.625 111.503L105.08 109.645L104.449 107.502L102.715 101.644L102.071 99.44L99.8414 91.873C99.1231 92.1207 98.2933 92.9999 97.4015 94.3251C97.0173 94.8947 96.6213 95.5514 96.2127 96.2819C90.6518 106.251 83.4564 129.361 83.4564 129.361Z" fill="#C39EFF"/>
<path d="M146.1 100.602C146.1 100.602 141.901 124.921 130.963 138.666L107.733 134.086C107.534 133.617 107.335 133.141 107.147 132.661C106.213 130.313 105.396 127.905 104.689 125.485C99.8052 108.895 99.8436 91.8847 99.8436 91.8847C104.711 90.1115 109.71 89.3599 109.71 89.3599L113.489 88.553L115.196 88.1942L122.963 86.548C122.963 86.548 127.632 89.1004 132.819 92.0836C133.327 92.3819 133.846 92.6748 134.355 92.9732C139.388 95.9234 144.526 99.0779 146.1 100.602Z" fill="#C39EFF"/>
<path d="M102.58 98.8464C101.843 104.792 98.0108 111.862 98.4917 116.235C99.1756 122.45 106.242 125.304 108.7 127.804L102.58 98.8464Z" fill="#C39EFF"/>
<path d="M114.152 105.16C114.163 105.127 114.174 105.1 114.185 105.066C114.274 104.817 114.18 104.624 114.019 104.508C113.997 104.426 113.98 104.342 113.964 104.254C113.826 103.658 112.942 103.906 113.052 104.492C113.075 104.602 113.091 104.713 113.113 104.818C111.461 109.475 109.671 114.083 107.738 118.629C106.754 120.933 105.738 123.214 104.688 125.485C105.395 127.905 106.213 130.313 107.147 132.662C107.953 131.678 108.705 130.656 109.395 129.59C112.434 124.911 114.224 119.502 114.66 113.945C114.893 111.005 114.733 108.05 114.152 105.16Z" fill="#6E4BA6"/>
<path d="M130.658 143.003L133.98 134.367L106.229 130.239L106.613 137.536L130.658 143.003Z" fill="#6E4BA6"/>
<path d="M123.892 101.892C124.041 101.892 124.177 101.879 124.314 101.879C129.404 101.694 133.577 97.9163 134.357 92.975C133.85 92.6776 133.33 92.3806 132.822 92.0832C127.633 89.0982 122.964 86.5471 122.964 86.5471L115.199 88.1942L113.49 88.5531L113.353 90.6092C112.944 96.7271 117.812 101.892 123.892 101.892Z" fill="#6E4BA6"/>
<path d="M138.331 124.068L150.425 143.004L164.175 136.519C164.175 136.519 163.327 133.734 161.888 129.665C161.664 129.072 161.445 128.452 161.208 127.812C157.448 117.619 150.642 101.734 143.793 99.0675L135.994 105.782L135.892 105.876L138.331 124.068Z" fill="#C39EFF"/>
<path d="M150.726 135.922C150.703 135.8 150.668 135.661 150.665 135.548C150.655 135.383 150.685 135.228 150.756 135.083C150.772 135.029 150.792 134.977 150.817 134.927C150.819 134.923 150.821 134.919 150.823 134.915C150.827 134.907 150.831 134.899 150.835 134.891C150.844 134.874 150.852 134.858 150.86 134.841C150.93 134.704 151.027 134.593 151.152 134.51C151.258 134.41 151.383 134.342 151.528 134.306C151.622 134.291 151.717 134.277 151.811 134.262C152.012 134.258 152.201 134.303 152.378 134.4C152.395 134.409 152.41 134.419 152.427 134.429C152.433 134.433 152.44 134.437 152.447 134.441L152.461 134.45C152.662 134.571 152.8 134.69 152.922 134.892C152.98 134.99 153.025 135.125 153.071 135.241C153.081 135.265 153.091 135.29 153.101 135.315C153.152 135.47 153.162 135.626 153.133 135.783C153.129 135.949 153.084 136.104 152.997 136.249C152.922 136.401 152.814 136.522 152.677 136.613C152.56 136.723 152.422 136.798 152.263 136.838C152.16 136.854 152.056 136.87 151.953 136.886C151.731 136.891 151.523 136.841 151.329 136.734C151.24 136.669 151.152 136.603 151.063 136.538C150.909 136.387 150.802 136.207 150.741 136C150.735 135.975 150.73 135.948 150.726 135.922Z" fill="#480EA5"/>
<path d="M154.198 119.077C155.719 118.635 156.405 120.995 154.884 121.437C153.363 121.878 152.677 119.518 154.198 119.077Z" fill="#480EA5"/>
<path d="M143.189 119.105C144.709 118.663 145.395 121.023 143.874 121.464C142.353 121.906 141.667 119.546 143.189 119.105Z" fill="#480EA5"/>
<path d="M143.789 106.101C145.31 105.659 145.996 108.019 144.474 108.461C142.954 108.903 142.267 106.543 143.789 106.101Z" fill="#480EA5"/>
<path d="M161.197 130.174C161.53 130.077 161.749 129.898 161.887 129.664C161.664 129.071 161.445 128.452 161.207 127.811C161.006 127.741 160.771 127.731 160.51 127.807C158.988 128.249 159.675 130.616 161.197 130.174Z" fill="#480EA5"/>
<path d="M97.4716 113.388C97.7767 110.65 99.1191 107.996 100.008 105.314C99.9408 105.281 99.8757 105.241 99.8215 105.184C99.5919 104.94 99.4337 104.608 99.266 104.32C99.1209 104.07 98.993 103.813 98.8678 103.554C98.6142 103.025 98.3674 102.491 98.1297 101.954C98.0298 101.728 98.0641 101.432 98.3077 101.308C98.545 101.187 98.8126 101.261 98.9541 101.486C99.2624 101.977 99.5869 102.453 99.9336 102.916C99.9783 102.976 100.022 103.037 100.069 103.096C99.967 102.967 100.113 103.154 100.131 103.176C100.236 103.313 100.337 103.451 100.437 103.591C100.452 103.613 100.468 103.634 100.483 103.656C100.918 101.815 101.001 99.9494 100.245 98.022C100.08 97.6012 100.765 97.3341 100.974 97.7255C103.371 102.212 100.196 107.159 99.4066 111.634C98.9835 114.032 98.9329 116.688 99.9942 118.936C100.9 120.855 102.485 122.377 104.305 123.438C104.957 123.818 104.542 125.001 103.788 124.709C99.2389 122.949 96.9477 118.093 97.4716 113.388Z" fill="#6E4BA6"/>
<path d="M127.288 121.565C126.264 121.271 125.123 121.311 124.066 121.219C122.969 121.122 121.871 121.01 120.778 120.868C118.653 120.591 116.543 120.196 114.448 119.747C110.187 118.833 105.998 117.515 101.981 115.829C101.193 115.498 100.5 116.625 101.307 117.015C105.359 118.977 109.587 120.53 113.951 121.641C116.119 122.192 118.323 122.595 120.539 122.898C121.664 123.052 122.792 123.185 123.924 123.277C125.027 123.366 126.194 123.526 127.288 123.306C128.206 123.121 128.111 121.801 127.288 121.565Z" fill="#6E4BA6"/>
<path d="M107.669 62.5178C104.063 69.9736 104.563 81.1637 104.563 81.1637C104.563 81.1637 110.213 90.6978 119.702 88.3971L120.411 60.477C120.411 60.477 109.073 59.6133 107.669 62.5178Z" fill="#2B2D23"/>
<path d="M107.439 65.7569C105.964 67.9649 105.038 70.5653 104.272 73.0924C103.887 74.3652 103.563 75.6557 103.294 76.9579C103.121 77.7968 102.955 78.6525 102.84 79.5104C103.201 79.8114 103.506 80.1807 103.794 80.5527C103.984 79.4078 104.131 78.257 104.366 77.1179C104.624 75.865 104.945 74.6247 105.319 73.4011C106.083 70.8979 107.192 68.5498 108.136 66.1158C108.297 65.6999 107.689 65.3835 107.439 65.7569Z" fill="#2B2D23"/>
<path d="M123.768 98.399H124.028C127.36 98.2751 130.084 95.687 130.394 92.3675L131.967 74.9049L117.316 77.8153L117.328 80.6516V82.7444L117.353 88.4288L117.328 88.7262L117.155 91.327C116.895 95.1667 119.954 98.399 123.768 98.399Z" fill="#FFD9A8"/>
<path d="M117.328 82.7448L117.353 88.4292L117.328 88.7266C123.062 88.8256 126.939 84.8132 129.428 80.7384C126.332 79.7847 123.162 79.5989 120.387 79.9212C119.347 80.0328 118.319 80.2801 117.328 80.6521V82.7448Z" fill="#FFB974"/>
<path d="M108.885 78.7677C110.122 81.8567 112.548 84.5876 115.706 85.6128C120.082 87.0415 124.957 84.9524 128.193 81.6781C130.042 79.8132 131.443 77.4795 132.268 74.993C134.087 69.593 133.209 63.4517 128.348 59.6806C125.023 57.0993 118.794 56.0438 114.239 57.6588C112.452 58.288 110.92 59.3281 109.925 60.8545C106.766 65.7049 106.792 73.5489 108.885 78.7677Z" fill="#FFD9A8"/>
<path d="M124.018 56.7133C134.309 54.7452 143.595 61.8927 142.519 84.2387C138.385 89.2017 129.386 88.8319 129.386 88.8319L130.141 76.7332L127.277 61.9185L124.018 56.7133Z" fill="#2B2D23"/>
<path d="M140.816 52.229C138.891 50.9453 136.54 50.8066 134.404 51.6355C134.312 51.6712 134.222 51.7178 134.131 51.7571C132.684 50.2393 130.394 49.6544 128.54 51.0787C126.189 52.8844 126.542 56.2622 128.075 58.4612C128.878 59.6133 130.087 60.407 131.414 60.8247C132.818 62.6969 135.503 63.6293 137.756 63.0937C140.031 62.5527 142.147 60.9738 142.822 58.6465C143.508 56.2843 142.967 53.6637 140.816 52.229Z" fill="#2B2D23"/>
<path d="M128.46 88.9761C129.004 87.1329 129.441 85.2629 129.743 83.3573C130.173 80.6326 130.421 77.8763 130.482 75.1182C130.517 73.5408 130.464 71.9701 130.33 70.398C130.27 69.6933 129.206 69.7155 129.225 70.4319C129.3 73.1602 129.284 75.8988 129.069 78.6208C128.855 81.3233 128.4 83.9797 127.892 86.6402C127.756 87.3557 127.61 88.0685 127.456 88.779C127.773 88.9042 128.126 88.9454 128.46 88.9761Z" fill="#2B2D23"/>
<path d="M133.244 69.1239C134.633 68.3772 136.492 68.299 137.69 69.3246C138.688 70.1784 139.024 71.5859 139.034 72.8995C139.046 74.5935 138.588 76.3184 137.571 77.673C136.554 79.0281 134.947 79.9733 133.254 80.0162C131.56 80.0591 129.833 79.1199 129.104 77.5908C127.706 74.6564 130.748 70.4654 133.244 69.1239Z" fill="#FFD9A8"/>
<path d="M131.352 75.2764C131.801 74.5189 132.446 73.8553 133.223 73.4341C133.58 73.2406 133.946 73.0761 134.337 72.9672C134.729 72.8578 135.141 72.827 135.54 72.7561C135.8 72.71 135.93 73.1308 135.667 73.2122C135.493 73.2659 135.335 73.3247 135.18 73.4201C135.024 73.5159 134.879 73.6289 134.73 73.7356C134.578 73.8445 134.428 73.958 134.282 74.0732C134.21 74.1288 134.14 74.1858 134.072 74.2463C134.006 74.306 133.901 74.377 133.858 74.4538C133.873 74.438 133.888 74.4217 133.904 74.4059C133.882 74.4289 133.859 74.4524 133.838 74.4759C133.782 74.5356 133.726 74.5948 133.667 74.6518C133.632 74.6866 133.595 74.7209 133.56 74.7562C133.555 74.7616 133.557 74.7589 133.552 74.7634C133.41 74.88 133.29 75.0586 133.18 75.2023C132.949 75.5042 132.727 75.813 132.541 76.1452C132.455 76.3007 132.218 76.4159 132.05 76.4399C131.875 76.4647 131.652 76.4182 131.512 76.3056C131.175 76.0358 131.141 75.6317 131.352 75.2764Z" fill="#2B2D23"/>
<path d="M109.516 65.2516C109.784 66.5985 113.934 66.7075 114.158 65.1671C114.428 63.3175 109.21 63.7202 109.516 65.2516Z" fill="#2B2D23"/>
<path d="M120.792 66.7658C120.752 68.0648 125.248 68.9033 125.757 68.2267C127.134 66.3956 120.864 64.4421 120.792 66.7658Z" fill="#2B2D23"/>
<path d="M113.056 75.4709C113.732 73.6186 114.502 71.8151 115.292 70.0098C115.368 69.8344 115.649 69.9135 115.585 70.1016C115.065 71.6189 114.534 73.1173 113.944 74.6116C113.659 75.3344 113.25 76.1168 113.257 76.9091C113.263 77.5722 113.725 78.0527 114.236 78.4143C114.368 78.5083 114.348 78.7348 114.171 78.7655C113.559 78.8726 113.004 78.3673 112.821 77.8272C112.557 77.0511 112.786 76.2099 113.056 75.4709Z" fill="#FFB974"/>
<path d="M112.64 70.7388C112.355 70.2642 111.93 69.8967 111.424 69.6725C110.415 69.2251 109.026 69.5645 108.565 70.638C108.468 70.8631 108.575 71.1388 108.786 71.2523C109.012 71.3739 109.261 71.3128 109.425 71.1189C109.455 71.0832 109.486 71.0489 109.517 71.0136C109.551 70.9743 109.489 71.0326 109.554 70.9743C109.622 70.9124 109.691 70.85 109.765 70.7949C109.858 70.7262 109.993 70.652 110.174 70.5978C110.19 70.5946 110.228 70.5851 110.243 70.5824C110.289 70.5738 110.335 70.5666 110.382 70.5616C110.428 70.5567 110.475 70.5539 110.521 70.5526C110.53 70.5521 110.586 70.5539 110.601 70.5539C110.802 70.5643 110.953 70.5964 111.126 70.6665C111.454 70.7994 111.726 71.0308 111.936 71.3246C112.165 71.6455 112.334 71.9832 112.445 72.3628C112.525 72.6377 112.982 72.5658 112.995 72.2883C113.022 71.745 112.921 71.208 112.64 70.7388Z" fill="#2B2D23"/>
<path d="M126.203 74.2477C126.222 73.6289 125.835 72.9495 125.461 72.4799C124.675 71.4928 123.477 70.8636 122.195 71.0032C120.786 71.1569 119.625 72.0139 119.132 73.345C119.017 73.656 119.496 73.7961 119.651 73.5394C120.222 72.5934 121.42 71.9407 122.529 72.0419C123.616 72.1414 124.598 72.964 124.917 73.9991C125.016 74.32 125.075 74.7038 125.421 74.8547C125.843 75.0391 126.191 74.6545 126.203 74.2477Z" fill="#2B2D23"/>
<path d="M115.609 79.9167C118.964 84.6587 123.73 83.4527 125.08 78.1607C125.138 77.9429 125.187 77.7191 125.232 77.4818C121.719 77.7982 118.313 78.9011 116.658 79.5081C116.596 79.5312 116.534 79.5547 116.472 79.5777C115.922 79.7848 115.609 79.9167 115.609 79.9167Z" fill="#2B2D23"/>
<path d="M122.487 53.7889C122.289 51.7273 120.999 49.9017 118.899 49.4379C117.302 49.0849 115.644 49.5346 114.37 50.5096C114.357 50.5024 114.345 50.4929 114.332 50.4857C112.824 49.6657 110.867 49.6576 109.447 50.6832C107.538 52.0627 107.307 54.6011 108.701 56.4448C109.865 57.9857 111.748 58.3482 113.574 58.4377C114.321 58.7423 115.157 58.6967 115.895 58.326C117.1 58.8861 118.558 58.8531 119.868 58.2858C121.585 57.5436 122.666 55.6448 122.487 53.7889Z" fill="#2B2D23"/>
<path d="M133.144 57.9383C124.017 52.5635 111.8 53.8269 107.669 62.5179C119.309 64.6437 128.97 65.4094 128.97 65.4094L133.144 57.9383Z" fill="#2B2D23"/>
<path d="M108.7 106.479C108.273 103.301 105.774 86.2262 105.774 86.2262L113.524 94.7862C116.672 98.263 116.719 103.546 113.633 107.078L112.63 108.225C112.63 108.225 108.814 107.325 108.7 106.479Z" fill="#FFD9A8"/>
<path d="M113.098 96.0441L105.774 86.2293L105.915 85.8727C106.472 84.472 106.385 82.9004 105.675 81.5737C105.563 81.359 105.606 81.1014 105.769 80.9382C105.795 80.9125 105.825 80.8908 105.855 80.8695C106.675 80.323 107.744 80.4464 108.415 81.1159C108.527 81.2275 108.621 81.3563 108.711 81.4978L109.06 82.1717L109.094 82.2404C109.692 83.4039 109.681 84.7825 109.064 85.9337L112.969 95.7259L113.098 96.0441Z" fill="#FFD9A8"/>
<path d="M109.503 93.3158L106.831 88.1413C107.894 85.9007 107.563 84.3332 106.853 83.007C106.741 82.7923 106.784 82.5347 106.947 82.371C106.973 82.3453 107.002 82.3236 107.033 82.3023C107.659 81.8811 108.437 81.8585 109.06 82.1712L109.094 82.24C109.692 83.4034 109.681 84.782 109.064 85.9332L108.055 88.5011L109.503 93.3158Z" fill="#FFD9A8"/>
<path d="M108.054 88.5015L108.195 88.1467C108.751 86.7487 108.664 85.1766 107.956 83.8491C107.825 83.6036 107.901 83.299 108.133 83.1444C109.091 82.5048 110.388 82.7891 110.991 83.77L111.373 84.5144C111.969 85.6774 111.958 87.0587 111.343 88.2118L115.378 98.3199L108.054 88.5015Z" fill="#FFD9A8"/>
<path d="M109.392 92.7553C109.284 92.3814 109.124 92.0248 108.992 91.6587C108.857 91.2853 108.74 90.9034 108.629 90.5228C108.516 90.1318 108.415 89.7359 108.358 89.3327C108.301 88.9241 108.33 88.5349 108.369 88.1272C108.498 86.7789 109.257 85.1458 108.163 83.995C108.065 83.892 107.922 84.0267 108 84.1383C108.438 84.7625 108.363 85.5956 108.197 86.298C108.025 87.0203 107.778 87.7778 107.84 88.5272C107.902 89.2735 108.004 89.9881 108.251 90.6987C108.502 91.4164 108.846 92.1631 109.26 92.8009C109.3 92.8628 109.417 92.8389 109.392 92.7553Z" fill="#FFB974"/>
<path d="M107.479 89.4336C107.287 89.1733 107.083 88.7755 107.117 88.4433C107.145 88.173 107.182 87.9181 107.268 87.6586C107.434 87.1546 107.583 86.6416 107.599 86.1069C107.629 85.094 107.502 83.997 107.015 83.0961C106.959 82.9926 106.816 83.0704 106.855 83.1761C107.054 83.7149 107.217 84.2645 107.279 84.8372C107.342 85.4086 107.257 85.9695 107.124 86.525C107.001 87.0394 106.716 87.523 106.645 88.046C106.565 88.6354 107.116 89.053 107.439 89.4693C107.46 89.4964 107.499 89.4612 107.479 89.4336Z" fill="#FFB974"/>
<path d="M136.45 97.1985C138.034 97.1985 138.034 99.656 136.45 99.656C134.866 99.656 134.866 97.1985 136.45 97.1985Z" fill="#480EA5"/>
<path d="M128.478 111.258C130.062 111.258 130.063 113.715 128.478 113.715C126.895 113.715 126.894 111.258 128.478 111.258Z" fill="#480EA5"/>
<path d="M118.477 103.431C120.061 103.431 120.062 105.889 118.477 105.889C116.894 105.889 116.893 103.431 118.477 103.431Z" fill="#480EA5"/>
<path d="M114.564 116.186C116.148 116.186 116.148 118.644 114.564 118.644C112.98 118.644 112.979 116.186 114.564 116.186Z" fill="#480EA5"/>
<path d="M104.273 107.49C105.857 107.49 105.857 109.947 104.273 109.947C102.689 109.947 102.689 107.49 104.273 107.49Z" fill="#480EA5"/>
<path d="M106.157 93.865C107.741 93.865 107.741 96.3225 106.157 96.3225C104.573 96.3225 104.573 93.865 106.157 93.865Z" fill="#480EA5"/>
<path d="M94.5616 106.185C96.1454 106.185 96.1458 108.643 94.5616 108.643C92.9778 108.643 92.9773 106.185 94.5616 106.185Z" fill="#480EA5"/>
<path d="M89.1986 120.099C90.7824 120.099 90.7828 122.557 89.1986 122.557C87.6152 122.557 87.6143 120.099 89.1986 120.099Z" fill="#480EA5"/>
<path d="M96.2123 96.2814C96.4102 96.554 96.7199 96.7519 97.166 96.7519C98.6644 96.7519 98.7512 94.5475 97.4015 94.3247C97.0173 94.8942 96.6213 95.5505 96.2123 96.2814Z" fill="#480EA5"/>
<path d="M131.087 125.752C132.671 125.752 132.671 128.21 131.087 128.21C129.503 128.21 129.503 125.752 131.087 125.752Z" fill="#480EA5"/>
<path d="M119.492 127.782C121.075 127.782 121.076 130.239 119.492 130.239C117.908 130.239 117.907 127.782 119.492 127.782Z" fill="#480EA5"/>
<path d="M107.027 124.448C108.611 124.448 108.611 126.905 107.027 126.905C105.443 126.905 105.443 124.448 107.027 124.448Z" fill="#480EA5"/>
<path d="M115.066 104.864C109.987 121.501 103.599 135.209 92.4946 141.033C81.7261 146.681 77.0628 129.287 91.2927 120.603C105.523 111.92 110.846 100.594 110.846 100.594L115.066 104.864Z" fill="#FFD9A8"/>
<path d="M136.445 113.505C136.665 110.094 137.476 106.862 139.098 103.847C139.423 103.243 140.476 103.639 140.236 104.31C139.185 107.243 138.41 110.391 138.215 113.505C138.119 115.027 138.143 116.555 138.298 118.073C138.463 119.708 138.938 121.262 139.196 122.874C139.325 123.681 138.145 124.345 137.747 123.464C137.065 121.957 136.809 120.24 136.607 118.607C136.398 116.916 136.335 115.207 136.445 113.505Z" fill="#6E4BA6"/>
<path d="M112.541 136.123C112.606 136.598 112.687 137.112 112.943 137.528C113.256 138.039 113.801 138.34 114.404 138.282C115.518 138.174 116.331 137.149 116.558 136.111C116.786 135.068 116.62 133.756 115.92 132.916C115.325 132.201 114.096 132.116 113.538 132.914C113.064 133.091 112.756 133.762 112.621 134.197C112.427 134.819 112.453 135.485 112.541 136.123ZM113.719 135.363C113.712 135.182 113.713 134.997 113.744 134.823C113.765 134.709 113.829 134.477 113.849 134.427C113.884 134.34 113.93 134.255 113.978 134.174C114 134.137 114.024 134.099 114.05 134.063C114.057 134.055 114.056 134.056 114.083 134.022C114.237 133.835 114.384 133.641 114.352 133.383C114.352 133.378 114.348 133.375 114.347 133.369C114.463 133.336 114.58 133.372 114.704 133.428C114.795 133.469 114.701 133.414 114.742 133.449C114.766 133.47 114.788 133.492 114.81 133.514C114.849 133.553 114.887 133.594 114.923 133.634C114.933 133.644 114.933 133.643 114.937 133.647C114.94 133.651 114.938 133.65 114.944 133.659C115.061 133.83 115.084 133.896 115.138 134.047C115.37 134.704 115.449 135.454 115.199 136.114C115.19 136.133 115.167 136.186 115.163 136.194C115.143 136.236 115.122 136.278 115.099 136.318C115.059 136.389 115.016 136.458 114.97 136.524C114.941 136.56 114.911 136.594 114.88 136.627C114.825 136.686 114.766 136.742 114.705 136.794C114.774 136.736 114.592 136.868 114.559 136.886C114.524 136.906 114.484 136.927 114.446 136.942C114.444 136.942 114.441 136.942 114.414 136.95C114.309 136.979 114.346 136.975 114.262 136.983C114.23 136.985 114.227 136.985 114.215 136.985C114.209 136.984 114.159 136.978 114.151 136.977C114.153 136.977 114.157 136.977 114.173 136.98C114.159 136.978 114.149 136.971 114.139 136.966C114.115 136.944 114.093 136.922 114.07 136.9C114.068 136.897 114.057 136.884 114.049 136.872C114.05 136.871 114.022 136.823 114.016 136.811C114.004 136.79 113.994 136.768 113.983 136.747C113.976 136.732 113.966 136.711 113.963 136.704C113.939 136.632 113.917 136.56 113.897 136.487C113.801 136.121 113.734 135.741 113.719 135.363Z" fill="#5D408C"/>
<path d="M115.423 139.505C115.536 139.005 116.052 138.943 116.385 139.16C116.517 139.011 116.71 138.921 116.964 138.949C119.185 139.192 121.464 139.181 123.696 139.293C125.941 139.405 128.187 139.518 130.428 139.691C130.976 139.733 130.989 140.539 130.428 140.552C128.448 140.599 126.467 140.597 124.486 140.591C124.818 141.138 124.867 141.981 125.049 142.552C125.272 143.254 125.541 143.938 125.867 144.599C126.543 145.972 127.398 147.222 128.436 148.347C130.491 150.577 133.164 152.364 136.055 153.303C136.632 153.491 136.411 154.366 135.814 154.221C132.554 153.425 129.675 151.718 127.38 149.272C126.258 148.075 125.264 146.72 124.463 145.289C124.063 144.575 123.714 143.838 123.41 143.078C123.096 142.295 122.605 141.405 122.887 140.579C120.916 140.55 118.924 140.464 116.964 140.574C116.786 140.584 116.65 140.529 116.533 140.453C115.761 144.122 115.197 147.829 114.864 151.564C114.785 152.441 113.404 152.443 113.49 151.564C113.885 147.507 114.526 143.481 115.423 139.505Z" fill="#5D408C"/>
<path d="M98.1188 146.466C98.5902 146.201 99.1295 146.032 99.6203 145.802C100.116 145.569 100.603 145.319 101.08 145.052C102.031 144.52 102.953 143.928 103.82 143.268C105.544 141.953 107.071 140.38 108.325 138.612C108.353 138.573 108.388 138.552 108.42 138.522C107.67 138.085 106.92 137.651 106.182 137.189C105.642 136.851 106.102 136.047 106.67 136.331C107.623 136.806 108.61 137.251 109.614 137.608C110.114 137.786 110.618 137.954 111.123 138.116C111.376 138.198 111.629 138.284 111.882 138.368C112.23 138.482 112.6 138.594 112.803 138.91C112.918 139 112.993 139.14 112.979 139.341C112.774 142.12 112.56 144.898 112.341 147.677C112.233 149.041 112.125 150.405 112.017 151.769C111.962 152.477 111.906 153.184 111.85 153.891C111.799 154.547 111.817 155.243 111.611 155.871C111.434 156.412 110.483 156.551 110.385 155.871C110.196 154.565 110.534 153.083 110.657 151.769L111.039 147.677C111.271 145.197 111.509 142.718 111.751 140.24C111.607 140.202 111.462 140.149 111.301 140.076C111.043 139.958 110.785 139.839 110.532 139.709C110.156 139.516 109.788 139.308 109.42 139.101C109.405 139.137 109.401 139.172 109.378 139.21C108.129 141.168 106.611 142.972 104.864 144.503C103.984 145.274 103.048 145.988 102.066 146.622C101.09 147.252 99.9892 147.977 98.8678 148.307C97.7753 148.627 97.1312 147.021 98.1188 146.466Z" fill="#5D408C"/>
<path d="M107.888 62.2575C108.05 62.2575 108.215 62.2666 108.378 62.2842L121.684 63.7048C124.446 64.0036 126.418 66.7725 126.082 69.8773C125.767 72.7932 123.562 74.9917 120.954 74.9917C120.792 74.9917 120.627 74.9827 120.464 74.965L107.157 73.5444C104.396 73.2456 102.424 70.4767 102.759 67.3719C103.075 64.4565 105.28 62.2575 107.888 62.2575ZM107.888 61.3535C104.864 61.3535 102.228 63.8865 101.861 67.2747C101.47 70.8803 103.798 74.09 107.06 74.443L120.368 75.8636C120.565 75.8849 120.76 75.8953 120.954 75.8953C123.978 75.8953 126.614 73.3622 126.981 69.9741C127.372 66.368 125.044 63.1588 121.782 62.8058L108.474 61.3852C108.277 61.3639 108.082 61.3535 107.888 61.3535Z" fill="#6E4BA6"/>
<path d="M107.583 72.0903L113.121 72.6824L114.969 72.8795L115.755 72.9667L118.989 73.3107L119.165 73.3305C119.403 73.3554 119.645 73.3622 119.876 73.3482C121.872 73.2252 123.547 71.6798 123.771 69.6232C124.019 67.3244 122.362 65.2614 120.063 65.0128L114.2 64.3882L110.97 64.0438L110.18 63.9565L108.481 63.7766C108.433 63.7707 108.385 63.7694 108.336 63.768C108.142 63.7495 107.954 63.7477 107.77 63.759C105.775 63.8819 104.099 65.4273 103.875 67.4839C103.627 69.7792 105.284 71.8421 107.583 72.0903Z" fill="#CFC1E7"/>
<path d="M108.189 68.9412L117.812 69.9627C118.401 70.0251 118.928 69.5988 118.99 69.0108C119.053 68.4227 118.627 67.8953 118.038 67.8329L108.416 66.8114C107.828 66.749 107.3 67.1752 107.238 67.7633C107.175 68.3513 107.601 68.8788 108.189 68.9412Z" fill="#6E4BA6"/>
<path d="M137.406 70.7512L136.561 70.5975C135.51 70.4063 134.504 71.1033 134.313 72.1537L133.525 76.488C133.334 77.5384 134.031 78.545 135.082 78.7358L135.927 78.8894C136.977 79.0806 137.984 78.3836 138.175 77.3332L138.963 72.999C139.154 71.9485 138.457 70.9419 137.406 70.7512Z" fill="#CFC1E7"/>
<path d="M135.502 68.7239C135.65 68.7239 135.8 68.7375 135.947 68.7642L138.626 69.251C139.274 69.3685 139.837 69.7314 140.212 70.2729C140.586 70.814 140.728 71.4689 140.61 72.1167L139.407 78.7389C139.193 79.9118 138.175 80.763 136.986 80.763C136.838 80.763 136.688 80.7494 136.541 80.7227L133.862 80.2355C132.525 79.9923 131.635 78.7068 131.878 77.3698L133.082 70.7484C133.294 69.5751 134.313 68.7239 135.502 68.7239ZM135.502 67.8199C133.905 67.8199 132.488 68.9599 132.192 70.5866L130.988 77.208C130.656 79.0386 131.87 80.7919 133.7 81.125L136.379 81.6123C136.583 81.6493 136.786 81.6674 136.985 81.6674C138.582 81.6674 140 80.5275 140.296 78.9007L141.5 72.2785C141.833 70.4483 140.619 68.6946 138.788 68.3619L136.109 67.8751C135.905 67.8376 135.702 67.8199 135.502 67.8199Z" fill="#6E4BA6"/>
<path d="M184.291 120.743C182.555 126.027 177.794 134.997 172.459 142.964C167.207 150.807 155.681 150.824 150.41 142.993L179.941 116.521L184.291 120.743Z" fill="#FFD9A8"/>
<path d="M178.199 105.889C177.29 114.582 176.922 120.442 184.293 120.745L187.604 109.723L178.199 105.889Z" fill="#FFD9A8"/>
<path d="M177.163 95.3625L183.196 96.3546C183.747 96.445 184.223 96.7858 184.487 97.2767L187.805 105.903C188.18 106.878 188.202 107.954 187.867 108.944L183.902 120.657C183.554 119.114 180.103 118.696 179.078 114.774C177.647 110.661 181.33 102.661 181.33 102.661L181.077 99.2881L176.524 97.4968C176.026 97.3006 175.72 96.7682 175.843 96.2068C175.971 95.6219 176.572 95.2653 177.163 95.3625Z" fill="#FFD9A8"/>
<path d="M182.183 101.468C182.559 101.208 182.905 101.125 183.304 101.198C183.709 101.272 184.084 101.466 184.461 101.754C185.191 102.312 185.873 102.954 186.494 103.885C186.603 104.049 186.46 104.406 186.346 104.257C185.738 103.469 185.051 102.806 184.326 102.526C183.977 102.391 183.622 102.301 183.271 102.196C182.898 102.086 182.547 101.962 182.182 101.775C182.097 101.731 182.108 101.52 182.183 101.468Z" fill="#FFB974"/>
<path d="M180.832 100.276L172.453 96.7465C172.041 96.5748 171.622 96.4559 171.202 96.3976C169.019 96.0952 166.822 97.2817 165.924 99.4047L164.876 101.897C163.864 104.287 164.862 107.024 167.11 108.23L163.662 106.708C161.128 105.638 159.935 102.713 161.004 100.179L162.06 97.6876C162.958 95.5645 165.148 94.3771 167.33 94.6791C167.758 94.7383 168.177 94.8572 168.589 95.0289L180.452 100.093C180.582 100.15 180.711 100.206 180.832 100.276Z" fill="#5D408C"/>
<path d="M183.404 105.661L181.252 116.508C181.001 117.773 179.959 118.783 178.706 118.892C178.629 118.897 178.552 118.901 178.476 118.899C177.132 118.888 176.046 118.004 175.717 116.797L174.208 111.237L174.204 111.214L167.14 108.241C167.132 108.24 167.118 108.23 167.111 108.229C164.862 107.024 163.865 104.286 164.876 101.896L165.924 99.4043C166.822 97.2812 169.02 96.0947 171.202 96.3971C171.622 96.4554 172.042 96.5743 172.453 96.7461L180.832 100.275L180.846 100.285C182.777 101.302 183.836 103.482 183.404 105.661Z" fill="#6E4BA6"/>
<path d="M181.548 101.535C178.783 100.772 177.24 100.745 176.807 100.905C176.485 101.023 174.266 102.519 173.151 103.277C172.776 103.532 172.626 104.008 172.785 104.433C172.965 104.914 173.487 105.175 173.981 105.03L176.913 103.981L181.149 104.709L181.548 101.535Z" fill="#FFD9A8"/>
<path d="M181.287 104.516C177.876 104.072 175.134 105.214 174.858 105.52C174.672 105.728 173.73 107.186 173.14 108.11C172.868 108.534 172.989 109.095 173.408 109.373C173.779 109.617 174.271 109.563 174.579 109.243L175.78 107.995C175.96 107.808 176.218 107.719 176.475 107.754L179.313 108.149L181.287 104.516Z" fill="#FFD9A8"/>
<path d="M178.803 107.853C176.826 108.316 175.201 109.126 174.976 109.473C174.825 109.706 174.122 111.294 173.681 112.298C173.479 112.759 173.686 113.295 174.144 113.504C174.548 113.688 175.026 113.557 175.28 113.193L176.272 111.773C176.421 111.561 176.661 111.432 176.921 111.428L179.787 111.376L178.803 107.853Z" fill="#FFD9A8"/>
<path d="M181.548 101.535C184.501 102.227 186.254 103.289 186.982 105.305C187.711 107.32 184.021 117.343 184.021 117.343L182.025 118.816C182.025 118.816 177.936 116.264 179.417 111.105L178.29 107.12L181.548 101.535Z" fill="#FFD9A8"/>
<path d="M94.5376 49.4271C94.7496 51.4286 94.8007 53.43 94.8106 55.4315C94.8075 57.433 94.7577 59.4344 94.5376 61.4359C94.3175 59.4344 94.2673 57.433 94.2646 55.4315C94.2745 53.43 94.3261 51.4286 94.5376 49.4271Z" fill="#C39EFF"/>
<path d="M88.5332 55.4315C90.5347 55.2 92.5362 55.144 94.5376 55.1327C96.5391 55.1354 98.5405 55.1901 100.542 55.4315C98.5405 55.6728 96.5391 55.728 94.5376 55.7302C92.5362 55.7194 90.5347 55.6629 88.5332 55.4315Z" fill="#C39EFF"/>
<path d="M55.4821 155.237C55.6462 156.787 55.686 158.336 55.6936 159.886C55.6914 161.435 55.6525 162.984 55.4821 164.534C55.3117 162.984 55.2728 161.435 55.2706 159.886C55.2787 158.336 55.318 156.787 55.4821 155.237Z" fill="#C39EFF"/>
<path d="M50.8337 159.885C52.3832 159.706 53.9327 159.662 55.4821 159.654C57.0316 159.655 58.581 159.698 60.1305 159.885C58.581 160.072 57.0316 160.115 55.4821 160.117C53.9327 160.108 52.3832 160.065 50.8337 159.885Z" fill="#C39EFF"/>
<path d="M197.649 118.665C197.795 120.038 197.83 121.412 197.837 122.785C197.835 124.159 197.8 125.532 197.649 126.906C197.498 125.532 197.464 124.159 197.462 122.785C197.468 121.412 197.504 120.039 197.649 118.665Z" fill="#C39EFF"/>
<path d="M193.529 122.785C194.902 122.627 196.276 122.588 197.649 122.58C199.022 122.582 200.396 122.62 201.77 122.785C200.396 122.951 199.023 122.989 197.649 122.991C196.276 122.983 194.902 122.944 193.529 122.785Z" fill="#C39EFF"/>
<path d="M51.1113 90.3408C51.1235 82.9456 51.1501 75.55 51.1759 68.1548C35.9218 72.2359 26.4791 77.8854 26.4791 84.1294V125.623C26.4791 119.39 35.8879 113.75 51.0945 109.67C51.0986 103.227 51.1009 96.784 51.1113 90.3408Z" fill="#CFC1E7"/>
<path d="M41.7395 80.0727C33.9881 83.3953 28.8625 87.0597 27.0658 90.8696C27.0653 91.9096 27.0603 92.9501 27.0603 93.9902C27.0603 94.279 27.0599 94.5683 27.0599 94.8571C28.9868 90.8284 34.6309 86.9629 43.1655 83.4934C43.849 83.2154 44.2942 82.5492 44.2992 81.812C44.2992 81.7984 44.2992 81.7853 44.2996 81.7717C44.3086 80.4492 42.9549 79.5515 41.7395 80.0727Z" fill="url(#paint2_linear_3_8351)"/>
<path d="M41.7395 91.9118C33.9678 95.2435 28.8399 98.9183 27.0563 102.739C27.0558 104.061 27.0563 105.383 27.0545 106.705C28.9773 102.674 34.625 98.8048 43.1655 95.3326C43.849 95.0546 44.2942 94.3883 44.2992 93.6511C44.2992 93.6376 44.2992 93.6245 44.2996 93.6109C44.3087 92.2884 42.9549 91.3911 41.7395 91.9118Z" fill="url(#paint3_linear_3_8351)"/>
<path d="M41.7395 103.752C33.9316 107.098 28.7901 110.792 27.0296 114.632C27.0219 115.974 27.0065 117.316 26.9934 118.659C28.8629 114.586 34.5436 110.677 43.1651 107.172C43.8485 106.895 44.2937 106.228 44.2987 105.491C44.2987 105.477 44.2987 105.464 44.2992 105.451C44.3087 104.128 42.9549 103.23 41.7395 103.752Z" fill="url(#paint4_linear_3_8351)"/>
<path d="M106.168 131.335C106.169 123.231 106.162 115.128 106.178 107.024C61.8038 106.442 26.4926 96.5887 26.4926 84.5135V126.008C26.4926 138.081 61.797 147.934 106.166 148.518C106.167 142.79 106.167 137.063 106.168 131.335Z" fill="url(#paint5_linear_3_8351)"/>
<path d="M79.8209 116.653C73.8902 115.813 67.9993 114.823 62.1441 113.372C58.6276 112.483 56.1172 114.995 56.1172 119.115C56.1172 121.157 56.1172 122.178 56.1172 124.221C56.203 128.553 58.6493 132.433 62.1206 133.429C64.8186 134.126 67.3195 132.669 68.3325 130.08C70.0464 130.43 70.9274 130.597 72.7327 130.911C73.7904 133.893 76.4662 136.336 79.8006 136.781C83.3185 137.285 87.6857 135.137 87.905 130.19C87.905 128.134 87.905 127.106 87.905 125.05C87.6216 120.057 83.5038 117.141 79.8209 116.653Z" fill="#CFC1E7"/>
<path d="M62.819 117.56C62.0081 117.356 61.3694 117.953 61.3685 118.9C61.3676 119.846 62.0044 120.786 62.8149 120.99C63.6253 121.194 64.302 120.585 64.3033 119.638C64.3047 118.69 63.6298 117.764 62.819 117.56Z" fill="#F1F1F1"/>
<path d="M62.8108 124.597C62.0008 124.391 61.3626 124.987 61.3617 125.934C61.3608 126.881 61.9972 127.821 62.8068 128.027C63.6163 128.232 64.2929 127.625 64.2938 126.677C64.2952 125.73 63.6208 124.801 62.8108 124.597Z" fill="#F1F1F1"/>
<path d="M59.8864 120.293C59.1202 120.075 58.5186 120.659 58.5182 121.605C58.5177 122.551 59.118 123.502 59.8841 123.721C60.6498 123.94 61.2912 123.344 61.2921 122.397C61.293 121.45 60.653 120.511 59.8864 120.293Z" fill="#F1F1F1"/>
<path d="M65.9034 121.81C65.0509 121.621 64.3775 122.229 64.3761 123.176C64.3747 124.124 65.0464 125.053 65.8984 125.243C66.7505 125.434 67.461 124.813 67.4624 123.865C67.4637 122.916 66.7559 122 65.9034 121.81Z" fill="#F1F1F1"/>
<path d="M84.1213 125.099C82.9601 124.972 82.386 124.905 81.2506 124.764C81.2515 123.691 81.252 123.154 81.2529 122.081C81.2533 121.36 80.635 120.699 79.8811 120.601C79.7572 120.585 79.6953 120.576 79.5719 120.56C78.8198 120.461 78.2177 120.961 78.2168 121.682C78.2154 122.754 78.215 123.29 78.2136 124.363C77.1076 124.208 76.5611 124.127 75.4831 123.959C74.7585 123.846 74.1786 124.335 74.1777 125.055C74.1777 125.174 74.1773 125.233 74.1773 125.351C74.1764 126.071 74.7545 126.751 75.479 126.864C76.5575 127.032 77.104 127.113 78.21 127.269C78.2087 128.342 78.2082 128.878 78.2068 129.951C78.2059 130.671 78.8076 131.341 79.5601 131.442C79.6835 131.459 79.7459 131.467 79.8698 131.483C80.6246 131.583 81.2447 131.076 81.2456 130.355C81.2465 129.282 81.247 128.745 81.2479 127.672C82.3833 127.813 82.9578 127.881 84.1195 128.009C84.9001 128.095 85.5405 127.575 85.5405 126.853C85.5405 126.735 85.5405 126.676 85.5405 126.557C85.5414 125.835 84.9014 125.185 84.1213 125.099Z" fill="#F1F1F1"/>
<path d="M50.7207 109.859C50.7207 109.869 50.7207 109.878 50.7207 109.888C50.7126 111.012 49.6291 111.819 48.5498 111.504C36.4782 107.974 28.5605 103.468 26.5328 98.447L26.4931 96.0084C29.38 100.729 37.5287 104.898 49.4691 108.208C50.2109 108.414 50.7261 109.089 50.7207 109.859Z" fill="#CFC1E7"/>
<path d="M50.5937 119.263V119.292C50.5842 120.416 49.4994 121.223 48.4241 120.908C45.1168 119.942 42.1255 118.905 39.4826 117.806C32.6199 114.958 28.113 111.694 26.5554 108.128C26.546 108.114 26.5365 108.099 26.5315 108.08C26.5315 108.08 26.5265 108.08 26.5315 108.076L26.4931 105.6C26.498 105.61 26.5026 105.619 26.5121 105.629C29.0021 109.495 35.0237 112.974 43.7694 115.914C45.5187 116.501 47.3777 117.065 49.3417 117.61C50.0825 117.816 50.5987 118.494 50.5937 119.263Z" fill="#CFC1E7"/>
<path d="M50.4694 128.664V128.693C50.4599 129.82 49.3751 130.628 48.2998 130.308C41.6807 128.373 36.3236 126.165 32.5051 123.732C29.5897 121.882 27.5684 119.908 26.56 117.82C26.5505 117.806 26.5455 117.791 26.536 117.777L26.4931 115.192C26.498 115.206 26.5075 115.216 26.517 115.225C28.137 117.614 31.1098 119.856 35.2483 121.911C38.9949 123.775 43.7025 125.481 49.2174 127.015C49.9582 127.221 50.4744 127.895 50.4694 128.664Z" fill="#CFC1E7"/>
<path d="M190.951 62.1618C192.717 60.3958 192.717 57.5325 190.951 55.7664C189.185 54.0004 186.322 54.0004 184.556 55.7664C182.79 57.5325 182.79 60.3958 184.556 62.1618C186.322 63.9278 189.185 63.9278 190.951 62.1618Z" fill="#CFC1E7"/>
<path d="M180.316 68.3474C180.044 69.9239 179.48 71.3676 178.681 72.6432C177.768 74.0945 176.556 75.3235 175.147 76.256C172.712 77.8547 169.684 78.5752 166.586 78.0409C164.636 77.7038 162.879 76.9105 161.403 75.7868C160.482 75.0822 159.675 74.2527 159.002 73.3266C157.926 71.8504 157.193 70.1269 156.883 68.2904C156.699 67.2065 156.668 66.0828 156.804 64.9433C156.831 64.7327 156.859 64.5221 156.896 64.3078C157.004 63.6845 157.159 63.0802 157.355 62.4962C159.204 57.0523 164.781 53.6072 170.622 54.616C171.037 54.6848 171.443 54.7788 171.836 54.8886L171.838 54.894C177.627 56.519 181.365 62.2969 180.316 68.3474Z" fill="#6E4BA6"/>
<path d="M176.345 66.3726C175.229 72.8375 169.082 77.1758 162.612 76.0612C162.203 75.9911 161.797 75.8967 161.404 75.7868C157.999 73.1851 156.119 68.8238 156.897 64.3083C158.014 57.8433 164.158 53.5001 170.623 54.6165C171.038 54.6852 171.444 54.7792 171.837 54.8891L171.839 54.8945C175.243 57.4962 177.124 61.8575 176.345 66.3726Z" fill="#C39EFF"/>
<path d="M175.444 75.1821C172.617 73.8121 169.849 72.316 167.048 70.8696C164.27 69.3847 161.54 67.7851 158.98 66.0164C158.308 65.5581 157.654 65.0885 157.026 64.5917C156.971 64.5483 156.922 64.5099 156.868 64.4661C156.578 66.3057 156.726 68.1729 157.277 69.914C159.684 71.7921 162.244 73.4188 164.898 74.8652C167.043 76.0553 169.303 77.0488 171.656 77.8186C173.288 77.382 174.828 76.6014 176.154 75.5148C175.913 75.4058 175.679 75.2964 175.444 75.1821Z" fill="#6E4BA6"/>
<path d="M185.769 74.3906C185.765 74.0534 185.695 73.7682 185.61 73.5115C185.435 72.9957 185.189 72.5903 184.937 72.2065C184.412 71.4531 183.826 70.827 183.218 70.2394C182.314 69.3743 181.365 68.591 180.396 67.8456C180.326 68.3908 180.219 68.9345 180.066 69.4719C180.764 70.0767 181.423 70.7172 182.031 71.3853C182.556 71.9652 183.036 72.5709 183.398 73.1878C183.569 73.4911 183.719 73.8007 183.781 74.0643C183.856 74.34 183.8 74.4896 183.783 74.4991C183.753 74.5081 183.653 74.5904 183.387 74.646C183.136 74.6971 182.809 74.7065 182.465 74.6889C181.778 74.6415 181.043 74.4751 180.309 74.2717C179.566 74.0511 178.827 73.7894 178.093 73.4938C177.381 73.2036 176.678 72.8868 175.979 72.5483C173.151 71.18 170.38 69.6821 167.581 68.2371C164.802 66.7532 162.074 65.154 159.511 63.3835C158.841 62.9238 158.184 62.4519 157.556 61.9588C156.981 61.5068 156.431 61.043 155.908 60.563C155.364 60.0654 154.865 59.5424 154.489 59.0425C154.316 58.8002 154.162 58.5561 154.094 58.3957C154.042 58.411 153.99 58.4269 153.948 58.4477C153.941 58.4499 153.931 58.4567 153.923 58.459C153.887 58.5141 153.826 58.5367 153.821 58.534C153.806 58.5263 153.856 58.491 153.923 58.459C153.933 58.4517 153.939 58.4422 153.944 58.4327C154.006 58.3735 154.007 58.2687 154.026 58.2791C154.037 58.2596 154.054 58.3188 154.089 58.3934L154.094 58.3961C154.271 58.3428 154.509 58.3039 154.749 58.284C155.403 58.233 156.153 58.2777 156.905 58.3785C157.718 58.4933 158.546 58.6479 159.375 58.8463C159.921 58.167 160.533 57.5599 161.201 57.0333C159.972 56.5637 158.715 56.1348 157.389 55.8116C156.543 55.61 155.678 55.4423 154.704 55.408C154.209 55.3953 153.696 55.4043 153.093 55.5571C152.79 55.6358 152.464 55.7456 152.116 55.9671C151.77 56.1592 151.415 56.5199 151.166 56.9371C150.928 57.3669 150.8 57.8686 150.803 58.2669C150.793 58.689 150.86 59.0357 150.939 59.3508C151.108 59.9691 151.355 60.4428 151.603 60.8803C152.109 61.7482 152.681 62.4592 153.264 63.1263C154.353 64.339 155.516 65.4048 156.719 66.406C156.826 66.4946 156.929 66.5809 157.036 66.6695C159.667 68.8057 162.494 70.6254 165.43 72.2314C168.359 73.8514 171.491 75.1165 174.78 75.9269C174.989 75.9771 175.19 76.0296 175.401 76.0752L175.406 76.0779C176.846 76.4196 178.311 76.6935 179.823 76.8567C180.687 76.9562 181.567 77.0023 182.504 76.943C182.977 76.906 183.462 76.845 183.991 76.6705C184.257 76.5783 184.534 76.4671 184.811 76.2632C185.09 76.091 185.356 75.7814 185.542 75.4474C185.704 75.0993 185.794 74.7138 185.769 74.3906Z" fill="#C39EFF"/>
<path d="M168.046 50.2275H166.69V58.9633H168.046V50.2275Z" fill="#C39EFF"/>
<path d="M168.046 45.9517H166.69V48.1958H168.046V45.9517Z" fill="#C39EFF"/>
<path d="M164.841 51.1976H163.485V62.5202H164.841V51.1976Z" fill="#C39EFF"/>
<path d="M171.193 76.7545H169.837V81.4481H171.193V76.7545Z" fill="#6E4BA6"/>
<path d="M171.193 83.634H169.837V85.3571H171.193V83.634Z" fill="#6E4BA6"/>
<path d="M173.713 79.3092H172.357V83.1932H173.713V79.3092Z" fill="#6E4BA6"/>
<path d="M91.6756 171.006L89.8983 161.445L82.4529 167.774L84.2117 177.387L91.6756 171.006Z" fill="#CFC1E7"/>
<path d="M89.8983 161.445L80.748 158.152L73.2841 164.533L82.4529 167.775L89.8983 161.445Z" fill="#E8FFFA"/>
<path d="M86.2131 155.282H84.8571V161.771H86.2131V155.282Z" fill="#E8FFFA"/>
<path d="M79.0747 156.774H77.7187V163.524H79.0747V156.774Z" fill="#E8FFFA"/>
<path d="M79.0747 152.513H77.7187V155.282H79.0747V152.513Z" fill="#E8FFFA"/>
<path d="M84.2117 177.387L82.4529 167.775L73.2841 164.533L75.0433 174.146L84.2117 177.387Z" fill="#5D408C"/>
<path d="M79.4259 171.739H78.0699V180.72H79.4259V171.739Z" fill="#5D408C"/>
<path d="M79.4259 182.602H78.0699V186.496H79.4259V182.602Z" fill="#5D408C"/>
<path d="M82.7088 174.62H81.3528V179.098H82.7088V174.62Z" fill="#5D408C"/>
<path d="M80.1862 172.652L79.7233 170.122L77.3101 169.269L77.7729 171.799L80.1862 172.652Z" fill="#6E4BA6"/>
<path d="M66.6031 86.8039L78.0541 90.504L75.5541 78.672L64.0574 74.9213L66.6031 86.8039Z" fill="#5D408C"/>
<path d="M78.0541 90.5035L87.0299 82.4873L84.4842 70.6051L75.554 78.6719L78.0541 90.5035Z" fill="#CFC1E7"/>
<path d="M64.0574 74.9213L75.5541 78.672L84.4842 70.6051L72.9876 66.854L64.0574 74.9213Z" fill="#E8FFFA"/>
<path d="M71.4892 73.3507L74.6202 74.3722L77.0524 72.1754L73.921 71.1539L71.4892 73.3507Z" fill="#C39EFF"/>
<path d="M67.8235 84.5503H66.4675V89.8834H67.8235V84.5503Z" fill="#5D408C"/>
<path d="M67.8235 90.632H66.4675V92.2958H67.8235V90.632Z" fill="#5D408C"/>
<path d="M70.6666 86.6827H69.3106V94.3247H70.6666V86.6827Z" fill="#5D408C"/>
<path d="M86.4653 81.8695H85.1093V86.9938H86.4653V81.8695Z" fill="#CFC1E7"/>
<path d="M84.5068 90.353H83.1508V94.1168H84.5068V90.353Z" fill="#CFC1E7"/>
<path d="M84.5068 80.9153H83.1508V88.6689H84.5068V80.9153Z" fill="#CFC1E7"/>
<path d="M80.9839 62.8922H79.6279V70.6151H80.9839V62.8922Z" fill="#E8FFFA"/>
<path d="M80.9839 58.7297H79.6279V61.4919H80.9839V58.7297Z" fill="#E8FFFA"/>
<path d="M78.7321 65.6544H77.3761V69.3391H78.7321V65.6544Z" fill="#E8FFFA"/>
<path d="M180.39 177.019L186.018 190.405L194.873 178.806L189.255 165.338L180.39 177.019Z" fill="#5D408C"/>
<path d="M186.018 190.405L200.415 192.306L209.28 180.625L194.873 178.806L186.018 190.405Z" fill="#CFC1E7"/>
<path d="M189.255 165.338L194.873 178.806L209.28 180.625L203.662 167.157L189.255 165.338Z" fill="#E8FFFA"/>
<path d="M196.632 170.969L198.111 174.515L201.903 174.993L200.424 171.449L196.632 170.969Z" fill="#C39EFF"/>
<path d="M183.032 178.146H181.676V191.027H183.032V178.146Z" fill="#5D408C"/>
<path d="M183.032 193.457H181.676V196.009H183.032V193.457Z" fill="#5D408C"/>
<path d="M197.31 199.306H195.954V202.106H197.31V199.306Z" fill="#CFC1E7"/>
<path d="M197.31 187.624H195.954V197.49H197.31V187.624Z" fill="#CFC1E7"/>
<path d="M201.079 187.081H199.723V203.373H201.079V187.081Z" fill="#CFC1E7"/>
<path d="M201.079 205.183H199.723V206.903H201.079V205.183Z" fill="#CFC1E7"/>
<path d="M204.088 160.149H202.732V169.416H204.088V160.149Z" fill="#E8FFFA"/>
<path d="M204.088 153.67H202.732V156.774H204.088V153.67Z" fill="#E8FFFA"/>
<path d="M201.079 155.282H199.723V162.963H201.079V155.282Z" fill="#E8FFFA"/>
<path d="M54.8041 77.4818H53.4481V89.4788H54.8041V77.4818Z" fill="#CFC1E7"/>
<path d="M54.8041 71.1538H53.4481V74.7436H54.8041V71.1538Z" fill="#CFC1E7"/>
<path d="M24.1083 96.77H22.7523V98.5301H24.1083V96.77Z" fill="#5F3F93"/>
<path d="M24.1083 100.189H22.7523V111.969H24.1083V100.189Z" fill="#5F3F93"/>
<path d="M24.1083 113.611H22.7523V118.209H24.1083V113.611Z" fill="#5F3F93"/>
</g>
<defs>
<linearGradient id="paint0_linear_3_8351" x1="114.701" y1="122.905" x2="189.165" y2="152.38" gradientUnits="userSpaceOnUse">
<stop stop-color="#6E4BA6"/>
<stop offset="0.4054" stop-color="#6E4BA6" stop-opacity="0.5946"/>
<stop offset="0.8944" stop-color="#6E4BA6" stop-opacity="0.1056"/>
<stop offset="1" stop-color="#79D296" stop-opacity="0"/>
</linearGradient>
<linearGradient id="paint1_linear_3_8351" x1="195.252" y1="149.24" x2="148.407" y2="189.532" gradientUnits="userSpaceOnUse">
<stop stop-color="#6E4BA6" stop-opacity="0.933333"/>
<stop offset="1" stop-color="#6E4BA6" stop-opacity="0"/>
</linearGradient>
<linearGradient id="paint2_linear_3_8351" x1="57.445" y1="83.8894" x2="6.60154" y2="91.7115" gradientUnits="userSpaceOnUse">
<stop stop-color="#6E4BA6"/>
<stop offset="1" stop-color="#79D296" stop-opacity="0"/>
</linearGradient>
<linearGradient id="paint3_linear_3_8351" x1="59.2249" y1="95.4589" x2="8.38148" y2="103.281" gradientUnits="userSpaceOnUse">
<stop stop-color="#6E4BA6"/>
<stop offset="1" stop-color="#79D296" stop-opacity="0"/>
</linearGradient>
<linearGradient id="paint4_linear_3_8351" x1="61.0121" y1="107.076" x2="10.1685" y2="114.898" gradientUnits="userSpaceOnUse">
<stop stop-color="#6E4BA6"/>
<stop offset="1" stop-color="#6E4BA6" stop-opacity="0"/>
</linearGradient>
<linearGradient id="paint5_linear_3_8351" x1="26.4929" y1="116.516" x2="194.172" y2="116.516" gradientUnits="userSpaceOnUse">
<stop stop-color="#6E4BA6"/>
<stop offset="1" stop-color="#79D296" stop-opacity="0"/>
</linearGradient>
<clipPath id="clip0_3_8351">
<rect width="226" height="226" fill="white"/>
</clipPath>
</defs>
</svg>
