<svg width="213" height="213" viewBox="0 0 213 213" fill="none" xmlns="http://www.w3.org/2000/svg">
<path d="M108.276 188.57C142.826 188.57 170.835 184.491 170.835 179.46C170.835 174.428 142.826 170.349 108.276 170.349C73.7252 170.349 45.7166 174.428 45.7166 179.46C45.7166 184.491 73.7252 188.57 108.276 188.57Z" fill="#6E4BA6"/>
<path opacity="0.6" d="M108.276 188.57C142.826 188.57 170.835 184.491 170.835 179.46C170.835 174.428 142.826 170.349 108.276 170.349C73.7252 170.349 45.7166 174.428 45.7166 179.46C45.7166 184.491 73.7252 188.57 108.276 188.57Z" fill="white"/>
<g opacity="0.7">
<path d="M143.208 31.1304C152.831 35.5301 160.832 41.2777 167.58 47.4164C168.534 48.2811 169.463 49.1587 170.362 50.0448C173.258 52.899 175.883 55.8469 178.255 58.8502C181.297 62.697 183.921 66.6332 186.153 70.5652C189.749 76.8871 192.339 83.1918 194.047 89.0834C195.398 93.7353 196.226 98.1295 196.51 102.081C199.685 146.359 181.189 155.789 174.479 160.328C164.153 167.313 104.847 167.144 91.6837 166.79C78.5203 166.437 65.195 166.816 52.3682 163.552C39.5413 160.294 4.11217 143.929 22.9401 87.1536C24.2777 83.5795 25.8028 80.1843 27.494 76.9595C55.6373 16.5846 111.616 16.6856 143.208 31.1304Z" fill="#6E4BA6"/>
</g>
<g opacity="0.7">
<path d="M143.208 31.1304C152.831 35.5301 160.832 41.2777 167.58 47.4164C168.534 48.2811 169.463 49.1587 170.362 50.0448C173.258 52.899 175.883 55.8469 178.255 58.8502C181.297 62.697 183.921 66.6332 186.153 70.5652C189.749 76.8871 192.339 83.1918 194.047 89.0834C195.398 93.7353 196.226 98.1295 196.51 102.081C199.685 146.359 181.189 155.789 174.479 160.328C164.153 167.313 104.847 167.144 91.6837 166.79C78.5203 166.437 65.195 166.816 52.3682 163.552C39.5413 160.294 4.11217 143.929 22.9401 87.1536C24.2777 83.5795 25.8028 80.1843 27.494 76.9595C55.6373 16.5846 111.616 16.6856 143.208 31.1304Z" fill="white"/>
</g>
<path d="M30.1634 81.3766C29.008 87.9532 28.1441 94.6797 27.4429 101.384C26.101 114.168 24.5376 126.88 22.0455 138.927V138.931" stroke="#263238" stroke-miterlimit="10"/>
<path d="M33.0959 67.7169C32.192 71.1939 31.4056 74.754 30.715 78.3682" stroke="#263238" stroke-miterlimit="10"/>
<path d="M33.3673 131.579C35.8347 108.906 37.9673 78.2285 44.9072 49.787" stroke="#263238" stroke-miterlimit="10"/>
<path d="M32.7709 136.264C32.8876 135.382 32.9997 134.502 33.1074 133.621" stroke="#263238" stroke-miterlimit="10"/>
<path d="M30.3269 150.885C31.1772 146.767 31.8656 142.699 32.4429 138.649" stroke="#263238" stroke-miterlimit="10"/>
<path d="M21.9944 90.1202C21.9944 90.1245 21.9944 90.1245 21.9944 90.1288C20.9123 100.77 19.7408 111.314 17.679 121.167V121.171" stroke="#263238" stroke-miterlimit="10"/>
<path d="M39.6393 158.182C39.7671 157.364 39.8949 156.551 40.0142 155.729C40.1079 155.124 40.1974 154.519 40.2826 153.914C42.7832 136.559 43.9845 118.59 45.5522 100.885C45.5863 100.51 45.6203 100.136 45.6544 99.7607C46.1699 94.0011 46.7407 88.2118 47.4138 82.4565C48.6918 71.5978 50.3404 60.8541 52.7047 50.6301C52.7984 50.2041 52.9007 49.7781 53.0029 49.3521C53.2756 48.2019 53.5567 47.0602 53.8507 45.9228V45.9185L54.3704 44.0569L54.7325 42.7576L55.7038 39.29L56.0573 38.012" stroke="#263238" stroke-miterlimit="10"/>
<path d="M180.169 64.1914C179.714 62.588 179.231 61.0045 178.72 59.4441V59.4398" stroke="#263238" stroke-miterlimit="10"/>
<path d="M183.983 81.2292C183.14 76.3856 182.142 71.6208 180.935 67.0038" stroke="#263238" stroke-miterlimit="10"/>
<path d="M192.318 139.758V139.753C189.664 127.314 188.032 114.13 186.643 100.877C186.046 95.1773 185.331 89.4625 184.421 83.8372" stroke="#263238" stroke-miterlimit="10"/>
<path d="M169.373 49.088V49.0923C172.453 60.4665 174.417 70.9333 175.793 80.8122C175.849 81.1914 175.9 81.5705 175.951 81.9454C176.113 83.1339 176.266 84.3097 176.411 85.4812C176.679 87.624 176.918 89.7412 177.144 91.8329C177.178 92.1609 177.212 92.4931 177.25 92.8212C177.263 92.9575 177.276 93.0938 177.293 93.2301C177.293 93.2429 177.293 93.2557 177.293 93.2685C177.297 93.294 177.301 93.3239 177.301 93.3494C177.314 93.4559 177.322 93.5667 177.335 93.6732C177.408 94.3846 177.48 95.0917 177.548 95.7946V95.7989C177.578 96.1312 177.612 96.4592 177.642 96.7915C177.719 97.5583 177.791 98.3251 177.859 99.0876C177.864 99.1345 177.868 99.1813 177.872 99.2239C177.893 99.4838 177.919 99.7437 177.94 99.9993C177.953 100.114 177.961 100.225 177.97 100.34C178.055 101.247 178.132 102.151 178.213 103.049C178.49 106.283 178.745 109.478 179.005 112.643C179.367 117.035 179.734 121.376 180.164 125.7C180.283 126.901 180.407 128.098 180.539 129.295C180.603 129.862 180.662 130.424 180.73 130.987C180.735 131.042 180.743 131.102 180.748 131.157C181.012 133.432 181.301 135.707 181.625 137.986C182.311 142.834 183.159 147.707 184.249 152.657V152.661" stroke="#263238" stroke-miterlimit="10"/>
<path d="M196.484 121.031C193.809 108.4 192.616 94.6231 191.21 80.9527V80.9485" stroke="#263238" stroke-miterlimit="10"/>
<path d="M174.835 160.091C173.143 149.935 171.985 139.532 171.009 129.057C170.915 128.094 170.826 127.131 170.741 126.168C170.255 120.809 169.812 115.437 169.361 110.074C169.275 109.06 169.19 108.051 169.105 107.037C168.922 104.86 168.734 102.687 168.543 100.515C168.538 100.468 168.534 100.425 168.53 100.378C168.155 96.1311 167.712 91.6965 167.192 87.1766C167.158 86.8571 167.12 86.5376 167.081 86.2181C167.047 85.9157 167.013 85.6132 166.975 85.3107C166.949 85.0935 166.924 84.8762 166.898 84.6547C166.886 84.5482 166.873 84.4417 166.86 84.3352C166.783 83.6877 166.702 83.0359 166.621 82.3841C166.617 82.3628 166.617 82.3415 166.617 82.3245C165.288 71.6787 163.567 60.7263 161.403 50.6301C161.313 50.2041 161.22 49.7781 161.126 49.3521C160.551 46.7194 159.942 44.1464 159.303 41.6585C159.192 41.2325 159.085 40.8108 158.97 40.389C158.919 40.1846 158.864 39.9801 158.809 39.7756C158.766 39.6137 158.723 39.4518 158.676 39.29C158.561 38.8597 158.446 38.4337 158.327 38.012" stroke="#263238" stroke-miterlimit="10"/>
<path d="M55.7037 39.29H63.6742V48.7898L54.7325 42.7576M64.3132 38.012H56.0573L55.7037 39.29H63.6742V48.7898L54.7325 42.7576L54.3704 44.0569L62.2216 49.3521H53.0029C52.9007 49.7781 52.7984 50.2041 52.7047 50.6301H64.3132C64.3601 50.6301 64.4069 50.6216 64.4538 50.613C64.4666 50.6088 64.4794 50.6045 64.4879 50.6003C64.522 50.5917 64.556 50.579 64.5859 50.5662C64.6029 50.5577 64.6157 50.5491 64.6285 50.5406C64.6583 50.5236 64.6838 50.5065 64.7094 50.4852C64.7222 50.4767 64.735 50.4682 64.7477 50.4554C64.8116 50.3958 64.867 50.3191 64.9011 50.2339C64.9096 50.2169 64.9139 50.1956 64.9181 50.1743C64.9267 50.1572 64.9352 50.1359 64.9394 50.1146C64.948 50.0763 64.9522 50.0337 64.9522 49.9911V38.651C64.9522 38.3016 64.6625 38.012 64.3132 38.012Z" stroke="#263238" stroke-miterlimit="10"/>
<path d="M82.9827 50.2356C82.9908 50.216 82.995 50.196 83.001 50.176C83.007 50.1559 83.015 50.1368 83.0193 50.1159C83.0278 50.0742 83.0321 50.0316 83.0321 49.9894V38.6527C83.0321 38.2995 82.7462 38.0137 82.3931 38.0137H65.5891H65.5878C65.5465 38.0137 65.5052 38.0179 65.4647 38.026C65.443 38.0303 65.4225 38.0384 65.4017 38.0448C65.3829 38.0503 65.3642 38.0546 65.3463 38.0618C65.325 38.0708 65.3058 38.0823 65.2862 38.0933C65.2696 38.1023 65.2526 38.1099 65.2368 38.1202C65.2172 38.1334 65.1997 38.1491 65.1814 38.1645C65.1678 38.176 65.1533 38.1858 65.1405 38.1986C65.0809 38.2578 65.0327 38.3281 65.0004 38.4069C64.9923 38.4265 64.988 38.4465 64.982 38.4665C64.9761 38.4865 64.968 38.5057 64.9637 38.5266C64.9552 38.5683 64.9509 38.6109 64.9509 38.6531V49.9902C64.9509 50.3434 65.2368 50.6292 65.5899 50.6292H82.3939C82.4429 50.6292 82.4902 50.6224 82.5362 50.6122C82.5486 50.6092 82.5601 50.6045 82.572 50.6011C82.6057 50.5913 82.6385 50.5798 82.6696 50.5645C82.684 50.5577 82.6977 50.5496 82.7113 50.5419C82.7399 50.5253 82.7667 50.507 82.7923 50.4861C82.8042 50.4763 82.8165 50.4674 82.828 50.4567C82.8936 50.3945 82.9473 50.3204 82.9827 50.2356ZM81.7541 48.7881L67.679 39.2917H81.7541V48.7881ZM66.2281 39.8544L80.3031 49.3508H66.2281V39.8544Z" stroke="#263238" stroke-miterlimit="10"/>
<path d="M101.065 50.2356C101.073 50.216 101.077 50.196 101.083 50.176C101.089 50.1559 101.097 50.1368 101.101 50.1159C101.11 50.0742 101.114 50.0316 101.114 49.9894V38.6527C101.114 38.2995 100.828 38.0137 100.475 38.0137H83.6711H83.6698C83.6285 38.0137 83.5872 38.0179 83.5467 38.026C83.525 38.0303 83.5045 38.0384 83.4836 38.0448C83.4649 38.0503 83.4462 38.0546 83.4283 38.0618C83.407 38.0708 83.3878 38.0823 83.3682 38.0933C83.3516 38.1023 83.3345 38.1099 83.3188 38.1202C83.2988 38.1334 83.2817 38.1491 83.2634 38.1645C83.2498 38.176 83.2353 38.1858 83.2225 38.1986C83.1629 38.2578 83.1147 38.3281 83.0819 38.4069C83.0738 38.4265 83.0696 38.4465 83.0636 38.4665C83.0576 38.4865 83.0496 38.5057 83.0453 38.5266C83.0368 38.5683 83.0325 38.6109 83.0325 38.6531V49.9902C83.0325 50.3434 83.3184 50.6292 83.6715 50.6292H100.476C100.525 50.6292 100.572 50.6224 100.618 50.6122C100.63 50.6092 100.642 50.6045 100.654 50.6011C100.688 50.5913 100.72 50.5798 100.752 50.5645C100.766 50.5577 100.78 50.5496 100.793 50.5419C100.822 50.5253 100.849 50.507 100.875 50.4861C100.887 50.4763 100.899 50.4674 100.91 50.4567C100.975 50.3945 101.029 50.3204 101.065 50.2356ZM99.8357 48.7881L85.7606 39.2917H99.8357V48.7881ZM84.3101 39.8544L98.3851 49.3508H84.3101V39.8544Z" stroke="#263238" stroke-miterlimit="10"/>
<path d="M119.146 50.2356C119.154 50.216 119.159 50.196 119.165 50.176C119.171 50.1559 119.179 50.1368 119.183 50.1159C119.191 50.0742 119.196 50.0316 119.196 49.9894V38.6527C119.196 38.2995 118.91 38.0137 118.557 38.0137H101.753C101.752 38.0137 101.752 38.0137 101.751 38.0137C101.71 38.0137 101.669 38.0179 101.628 38.026C101.607 38.0303 101.586 38.0384 101.565 38.0448C101.546 38.0503 101.528 38.0546 101.51 38.0618C101.489 38.0708 101.469 38.0823 101.449 38.0933C101.433 38.1023 101.416 38.1099 101.4 38.1202C101.38 38.1334 101.363 38.1491 101.345 38.1645C101.331 38.176 101.316 38.1858 101.304 38.1986C101.244 38.2578 101.196 38.3281 101.163 38.4069C101.155 38.4265 101.151 38.4465 101.145 38.4665C101.139 38.4865 101.131 38.5057 101.126 38.5266C101.118 38.5683 101.114 38.6109 101.114 38.6531V49.9902C101.114 50.3434 101.4 50.6292 101.753 50.6292H118.557C118.606 50.6292 118.653 50.6224 118.699 50.6122C118.711 50.6092 118.723 50.6045 118.735 50.6011C118.769 50.5913 118.802 50.5798 118.833 50.5645C118.847 50.5577 118.861 50.5496 118.874 50.5419C118.903 50.5253 118.93 50.507 118.955 50.4861C118.967 50.4763 118.98 50.4674 118.991 50.4567C119.057 50.3945 119.111 50.3204 119.146 50.2356ZM117.918 48.7881L103.843 39.2917H117.918V48.7881ZM102.392 39.8544L116.467 49.3508H102.392V39.8544Z" stroke="#263238" stroke-miterlimit="10"/>
<path d="M137.228 50.2356C137.236 50.216 137.241 50.196 137.247 50.176C137.253 50.1559 137.261 50.1368 137.265 50.1159C137.273 50.0742 137.278 50.0316 137.278 49.9894V38.6527C137.278 38.2995 136.992 38.0137 136.639 38.0137H119.835H119.833C119.792 38.0137 119.751 38.0179 119.71 38.026C119.689 38.0303 119.668 38.0384 119.647 38.0448C119.628 38.0503 119.61 38.0546 119.592 38.0618C119.571 38.0708 119.551 38.0823 119.532 38.0933C119.515 38.1023 119.498 38.1099 119.482 38.1202C119.463 38.1334 119.445 38.1491 119.427 38.1645C119.413 38.176 119.399 38.1858 119.386 38.1986C119.326 38.2578 119.278 38.3281 119.245 38.4069C119.237 38.4265 119.233 38.4465 119.227 38.4665C119.221 38.4865 119.213 38.5057 119.209 38.5266C119.2 38.5683 119.196 38.6109 119.196 38.6531V49.9902C119.196 50.3434 119.482 50.6292 119.835 50.6292H136.639C136.688 50.6292 136.735 50.6224 136.781 50.6122C136.794 50.6092 136.805 50.6045 136.818 50.6011C136.851 50.5913 136.884 50.5798 136.915 50.5645C136.93 50.5577 136.943 50.5496 136.957 50.5419C136.985 50.5253 137.012 50.507 137.038 50.4861C137.05 50.4763 137.062 50.4674 137.074 50.4567C137.139 50.3945 137.193 50.3204 137.228 50.2356ZM135.999 48.7881L121.924 39.2917H135.999V48.7881ZM120.474 39.8544L134.549 49.3508H120.474V39.8544Z" stroke="#263238" stroke-miterlimit="10"/>
<path d="M155.31 50.2356C155.318 50.216 155.322 50.196 155.328 50.176C155.334 50.1559 155.342 50.1368 155.346 50.1159C155.355 50.0742 155.359 50.0316 155.359 49.9894V38.6527C155.359 38.2995 155.073 38.0137 154.72 38.0137H137.916H137.915C137.874 38.0137 137.832 38.0179 137.792 38.026C137.77 38.0303 137.75 38.0384 137.729 38.0448C137.71 38.0503 137.691 38.0546 137.673 38.0618C137.652 38.0708 137.633 38.0823 137.613 38.0933C137.596 38.1023 137.579 38.1099 137.564 38.1202C137.543 38.1334 137.526 38.1491 137.508 38.1645C137.494 38.176 137.48 38.1858 137.467 38.1986C137.408 38.2578 137.359 38.3281 137.327 38.4069C137.319 38.4265 137.314 38.4465 137.308 38.4665C137.302 38.4865 137.294 38.5057 137.29 38.5266C137.281 38.5683 137.277 38.6109 137.277 38.6531V49.9902C137.277 50.3434 137.563 50.6292 137.916 50.6292H154.72C154.769 50.6292 154.817 50.6224 154.863 50.6122C154.875 50.6092 154.886 50.6045 154.899 50.6011C154.932 50.5913 154.965 50.5798 154.996 50.5645C155.011 50.5577 155.024 50.5496 155.038 50.5419C155.067 50.5253 155.093 50.507 155.119 50.4861C155.131 50.4763 155.143 50.4674 155.155 50.4567C155.221 50.3945 155.274 50.3204 155.31 50.2356ZM154.081 48.7881L140.006 39.2917H154.081V48.7881ZM138.555 39.8544L152.63 49.3508H138.555V39.8544Z" stroke="#263238" stroke-miterlimit="10"/>
<path d="M159.303 41.6585L156.636 39.8565V49.3521H161.126M158.809 39.7756L158.089 39.29H158.676M158.327 38.012H155.997C155.954 38.012 155.916 38.0162 155.873 38.0247C155.852 38.029 155.831 38.0375 155.809 38.046C155.792 38.0503 155.771 38.0546 155.754 38.0631C155.733 38.0716 155.716 38.0844 155.694 38.0929C155.677 38.1014 155.66 38.1099 155.643 38.1185C155.626 38.1312 155.609 38.1483 155.588 38.1653C155.575 38.1781 155.562 38.1866 155.55 38.1994C155.49 38.259 155.443 38.3272 155.409 38.4081C155.401 38.4252 155.396 38.4465 155.392 38.4678C155.383 38.4848 155.375 38.5061 155.371 38.5274C155.362 38.57 155.358 38.6126 155.358 38.651V49.9911C155.358 50.3447 155.643 50.6301 155.997 50.6301H161.403" stroke="#263238" stroke-miterlimit="10"/>
<path d="M60.6662 54.0696C62.9484 54.0696 64.7984 52.2195 64.7984 49.9374C64.7984 47.6552 62.9484 45.8052 60.6662 45.8052C58.3841 45.8052 56.534 47.6552 56.534 49.9374C56.534 52.2195 58.3841 54.0696 60.6662 54.0696Z" fill="white" stroke="#263238" stroke-miterlimit="10" stroke-linecap="round" stroke-linejoin="round"/>
<path d="M60.6901 53.1878C62.4852 53.1878 63.9405 51.7325 63.9405 49.9374C63.9405 48.1423 62.4852 46.687 60.6901 46.687C58.895 46.687 57.4397 48.1423 57.4397 49.9374C57.4397 51.7325 58.895 53.1878 60.6901 53.1878Z" fill="white" stroke="#263238" stroke-miterlimit="10" stroke-linecap="round" stroke-linejoin="round"/>
<path d="M69.018 54.0696C71.3001 54.0696 73.1502 52.2195 73.1502 49.9374C73.1502 47.6552 71.3001 45.8052 69.018 45.8052C66.7358 45.8052 64.8858 47.6552 64.8858 49.9374C64.8858 52.2195 66.7358 54.0696 69.018 54.0696Z" fill="white" stroke="#263238" stroke-miterlimit="10" stroke-linecap="round" stroke-linejoin="round"/>
<path d="M69.0418 53.1878C70.837 53.1878 72.2922 51.7325 72.2922 49.9374C72.2922 48.1423 70.837 46.687 69.0418 46.687C67.2467 46.687 65.7914 48.1423 65.7914 49.9374C65.7914 51.7325 67.2467 53.1878 69.0418 53.1878Z" fill="white" stroke="#263238" stroke-miterlimit="10" stroke-linecap="round" stroke-linejoin="round"/>
<path d="M77.2359 54.0696C79.5181 54.0696 81.3681 52.2195 81.3681 49.9374C81.3681 47.6552 79.5181 45.8052 77.2359 45.8052C74.9538 45.8052 73.1037 47.6552 73.1037 49.9374C73.1037 52.2195 74.9538 54.0696 77.2359 54.0696Z" fill="white" stroke="#263238" stroke-miterlimit="10" stroke-linecap="round" stroke-linejoin="round"/>
<path d="M77.2598 53.1878C79.0549 53.1878 80.5102 51.7325 80.5102 49.9374C80.5102 48.1423 79.0549 46.687 77.2598 46.687C75.4647 46.687 74.0094 48.1423 74.0094 49.9374C74.0094 51.7325 75.4647 53.1878 77.2598 53.1878Z" fill="white" stroke="#263238" stroke-miterlimit="10" stroke-linecap="round" stroke-linejoin="round"/>
<path d="M136.332 54.0696C138.615 54.0696 140.465 52.2195 140.465 49.9374C140.465 47.6552 138.615 45.8052 136.332 45.8052C134.05 45.8052 132.2 47.6552 132.2 49.9374C132.2 52.2195 134.05 54.0696 136.332 54.0696Z" fill="white" stroke="#263238" stroke-miterlimit="10" stroke-linecap="round" stroke-linejoin="round"/>
<path d="M136.356 53.1878C138.151 53.1878 139.607 51.7325 139.607 49.9374C139.607 48.1423 138.151 46.687 136.356 46.687C134.561 46.687 133.106 48.1423 133.106 49.9374C133.106 51.7325 134.561 53.1878 136.356 53.1878Z" fill="white" stroke="#263238" stroke-miterlimit="10" stroke-linecap="round" stroke-linejoin="round"/>
<path d="M144.684 54.0696C146.966 54.0696 148.816 52.2195 148.816 49.9374C148.816 47.6552 146.966 45.8052 144.684 45.8052C142.402 45.8052 140.552 47.6552 140.552 49.9374C140.552 52.2195 142.402 54.0696 144.684 54.0696Z" fill="white" stroke="#263238" stroke-miterlimit="10" stroke-linecap="round" stroke-linejoin="round"/>
<path d="M144.708 53.1878C146.503 53.1878 147.958 51.7325 147.958 49.9374C147.958 48.1423 146.503 46.687 144.708 46.687C142.913 46.687 141.458 48.1423 141.458 49.9374C141.458 51.7325 142.913 53.1878 144.708 53.1878Z" fill="white" stroke="#263238" stroke-miterlimit="10" stroke-linecap="round" stroke-linejoin="round"/>
<path d="M152.902 54.0696C155.184 54.0696 157.034 52.2195 157.034 49.9374C157.034 47.6552 155.184 45.8052 152.902 45.8052C150.62 45.8052 148.77 47.6552 148.77 49.9374C148.77 52.2195 150.62 54.0696 152.902 54.0696Z" fill="white" stroke="#263238" stroke-miterlimit="10" stroke-linecap="round" stroke-linejoin="round"/>
<path d="M152.926 53.1878C154.721 53.1878 156.176 51.7325 156.176 49.9374C156.176 48.1423 154.721 46.687 152.926 46.687C151.131 46.687 149.676 48.1423 149.676 49.9374C149.676 51.7325 151.131 53.1878 152.926 53.1878Z" fill="white" stroke="#263238" stroke-miterlimit="10" stroke-linecap="round" stroke-linejoin="round"/>
<path d="M161.326 164.01C159.695 164.014 158.059 164.027 156.427 164.044" stroke="#263238" stroke-miterlimit="10"/>
<path d="M151.428 164.124C152.162 164.108 152.897 164.095 153.631 164.082" stroke="#263238" stroke-miterlimit="10"/>
<path d="M123.594 164.028C132.046 164.044 140.499 164.072 148.951 164.125" stroke="#263238" stroke-miterlimit="10"/>
<path d="M93.7328 164.007C102.708 164.009 111.684 164.01 120.659 164.023" stroke="#263238" stroke-miterlimit="10"/>
<path d="M54.5365 164.07C66.6115 164.032 78.6869 164.011 90.7619 164.008" stroke="#263238" stroke-miterlimit="10"/>
<path d="M40.2199 181.882H31.3429L30.3568 180.019C27.9605 175.495 26.6697 170.466 26.5896 165.347L26.5828 164.9H44.9796C44.9796 170.38 43.5909 175.771 40.9433 180.57L40.2199 181.882Z" fill="white" stroke="#263238" stroke-miterlimit="10" stroke-linecap="round" stroke-linejoin="round"/>
<path d="M21.0384 165.265C22.7071 166.389 24.6518 166.979 26.5922 166.95C26.8256 166.946 27.0663 166.932 27.2764 166.816C27.4859 166.699 27.6581 166.457 27.6414 166.192C27.6223 165.89 27.3799 165.676 27.1562 165.51C25.9068 164.581 24.5474 163.845 23.1275 163.319C22.4093 163.054 21.6753 162.842 20.9324 162.687C20.336 162.563 19.6987 162.272 19.0959 162.278C18.9809 163.578 20.1639 164.677 21.0384 165.265Z" fill="#6E4BA6"/>
<path d="M44.7066 157.793C45.539 156.726 46.7365 156.035 47.9863 155.902C48.0592 155.894 48.1389 155.89 48.1985 155.937C48.2786 156.001 48.2901 156.128 48.2922 156.239C48.3229 157.914 47.8138 159.595 46.8817 160.895C46.4519 161.495 45.916 162.027 45.2672 162.26C44.7977 162.429 44.2375 162.427 43.7907 162.172C43.3425 161.916 43.4243 161.55 43.4703 161.046C43.5794 159.847 44.0015 158.698 44.7066 157.793Z" fill="#6E4BA6"/>
<path opacity="0.2" d="M44.7066 157.793C45.539 156.726 46.7365 156.035 47.9863 155.902C48.0592 155.894 48.1389 155.89 48.1985 155.937C48.2786 156.001 48.2901 156.128 48.2922 156.239C48.3229 157.914 47.8138 159.595 46.8817 160.895C46.4519 161.495 45.916 162.027 45.2672 162.26C44.7977 162.429 44.2375 162.427 43.7907 162.172C43.3425 161.916 43.4243 161.55 43.4703 161.046C43.5794 159.847 44.0015 158.698 44.7066 157.793Z" fill="black"/>
<path d="M36.6773 159.313C37.2937 158.556 37.7457 157.583 37.7657 156.553C37.7828 155.689 37.4961 154.846 37.085 154.119C36.6739 153.392 36.1414 152.765 35.6123 152.144C35.4406 154.016 35.3908 155.902 35.4636 157.782C35.479 158.181 35.5037 158.595 35.6715 158.947C35.8394 159.298 36.1917 159.569 36.535 159.481L36.6773 159.313Z" fill="#6E4BA6"/>
<path d="M39.0582 153.589C37.897 154.769 37.1672 156.481 37.0722 158.247C37.0386 158.87 37.0871 159.522 37.3547 160.068C37.6222 160.614 38.1487 161.03 38.697 160.974C39.2695 160.914 39.7126 160.385 40.0359 159.845C40.5731 158.948 41.2257 157.668 40.9199 156.563C40.5918 155.38 39.9439 154.32 39.0582 153.589Z" fill="#6E4BA6"/>
<path opacity="0.1" d="M39.0582 153.589C37.897 154.769 37.1672 156.481 37.0722 158.247C37.0386 158.87 37.0871 159.522 37.3547 160.068C37.6222 160.614 38.1487 161.03 38.697 160.974C39.2695 160.914 39.7126 160.385 40.0359 159.845C40.5731 158.948 41.2257 157.668 40.9199 156.563C40.5918 155.38 39.9439 154.32 39.0582 153.589Z" fill="black"/>
<path d="M42.5821 159.804C43.5295 158.921 43.9168 157.443 43.8742 156.052C43.8316 154.662 43.4175 153.325 43.0081 152.013C42.0845 153.28 41.3314 154.707 40.7835 156.229C40.5735 156.812 40.3916 157.421 40.3793 158.051C40.3669 158.681 40.545 159.34 40.9582 159.76C41.3714 160.18 42.0428 160.293 42.4905 159.92C42.4377 159.952 42.3849 159.983 42.332 160.015L42.5821 159.804Z" fill="#6E4BA6"/>
<g opacity="0.2">
<path d="M42.5821 159.804C43.5295 158.921 43.9168 157.443 43.8742 156.052C43.8316 154.662 43.4175 153.325 43.0081 152.013C42.0845 153.28 41.3314 154.707 40.7835 156.229C40.5735 156.812 40.3916 157.421 40.3793 158.051C40.3669 158.681 40.545 159.34 40.9582 159.76C41.3714 160.18 42.0428 160.293 42.4905 159.92C42.4377 159.952 42.3849 159.983 42.332 160.015L42.5821 159.804Z" fill="black"/>
</g>
<path d="M44.7432 154.348C44.9796 156.066 45.2118 157.824 44.9217 159.531C44.6316 161.238 43.7131 162.911 42.2767 163.513C41.679 163.764 40.9101 163.766 40.5092 163.204C40.2395 162.827 40.2127 162.283 40.3341 161.816C40.4555 161.35 40.7047 160.942 40.9501 160.543C42.0965 158.68 44.4846 154.163 44.7279 154.353L44.7432 154.348Z" fill="#6E4BA6"/>
<path d="M44.7432 154.348C44.9796 156.066 45.2118 157.824 44.9217 159.531C44.6316 161.238 43.7131 162.911 42.2767 163.513C41.679 163.764 40.9101 163.766 40.5092 163.204C40.2395 162.827 40.2127 162.283 40.3341 161.816C40.4555 161.35 40.7047 160.942 40.9501 160.543C42.0965 158.68 44.4846 154.163 44.7279 154.353L44.7432 154.348Z" fill="#6E4BA6"/>
<g opacity="0.1">
<path d="M44.7432 154.348C44.9796 156.066 45.2118 157.824 44.9217 159.531C44.6316 161.238 43.7131 162.911 42.2767 163.513C41.679 163.764 40.9101 163.766 40.5092 163.204C40.2395 162.827 40.2127 162.283 40.3341 161.816C40.4555 161.35 40.7047 160.942 40.9501 160.543C42.0965 158.68 44.4846 154.163 44.7279 154.353L44.7432 154.348Z" fill="black"/>
</g>
<path d="M40.3039 156.669C40.8649 157.687 41.3365 158.789 41.5299 159.969C41.7233 161.15 41.6189 162.422 41.0898 163.462C40.5607 164.502 39.5707 165.268 38.513 165.276C37.695 165.282 36.8942 164.787 36.4507 164.008C35.9616 163.149 36.3191 162.369 36.6922 161.528C37.5395 159.616 38.9453 158.112 40.3039 156.669Z" fill="#6E4BA6"/>
<path d="M50.8482 159.845C51.1413 160.321 51.1306 160.976 50.9334 161.512C50.7366 162.049 50.3792 162.487 50.0069 162.886C47.4764 165.596 43.8797 166.972 40.4202 166.553C40.1322 166.518 39.8067 166.444 39.6576 166.162C39.4932 165.851 39.6414 165.427 39.894 165.205C40.1467 164.984 40.4738 164.911 40.7861 164.835C42.5574 164.401 44.2507 163.62 45.798 162.551C47.3495 161.48 49.1928 160.738 50.8482 159.845Z" fill="#6E4BA6"/>
<path opacity="0.1" d="M50.8482 159.845C51.1413 160.321 51.1306 160.976 50.9334 161.512C50.7366 162.049 50.3792 162.487 50.0069 162.886C47.4764 165.596 43.8797 166.972 40.4202 166.553C40.1322 166.518 39.8067 166.444 39.6576 166.162C39.4932 165.851 39.6414 165.427 39.894 165.205C40.1467 164.984 40.4738 164.911 40.7861 164.835C42.5574 164.401 44.2507 163.62 45.798 162.551C47.3495 161.48 49.1928 160.738 50.8482 159.845Z" fill="black"/>
<path d="M44.7317 159.84C44.9882 159.459 45.3106 159.019 45.7311 159.067C46.057 159.104 46.2968 159.434 46.4319 159.773C46.9801 161.148 46.3245 162.832 45.2766 163.76C44.229 164.689 42.8837 165.041 41.5857 165.369C41.1405 165.481 40.6954 165.593 40.2502 165.706C39.7202 165.84 38.657 165.661 39.1302 164.823C39.4472 164.261 40.5088 163.941 41.0004 163.608C42.4394 162.637 43.7148 161.352 44.7317 159.84Z" fill="#6E4BA6"/>
<path d="M50.2395 165.265C48.5704 166.389 46.6261 166.979 44.6857 166.95C44.4522 166.946 44.2116 166.932 44.0015 166.816C43.7919 166.699 43.6198 166.457 43.6365 166.192C43.6556 165.89 43.898 165.676 44.1217 165.51C45.3711 164.581 46.7305 163.845 48.1504 163.319C48.8686 163.054 49.6026 162.842 50.3455 162.687C50.9419 162.563 51.5792 162.272 52.182 162.278C52.297 163.578 51.1136 164.677 50.2395 165.265Z" fill="#6E4BA6"/>
<path d="M44.8595 170.411C46.497 170.293 48.0673 169.546 49.416 168.484C49.6733 168.282 49.9549 167.958 49.8407 167.627C49.7606 167.395 49.5234 167.297 49.3125 167.227C47.7631 166.707 46.1801 166.184 44.566 166.254C43.8039 166.287 43.0392 166.471 42.3414 166.825C41.7966 167.102 40.6672 167.78 40.5079 168.513C40.343 169.271 41.7578 169.824 42.2779 170.026C43.104 170.349 43.9888 170.474 44.8595 170.411Z" fill="#6E4BA6"/>
<path opacity="0.1" d="M44.8595 170.411C46.497 170.293 48.0673 169.546 49.416 168.484C49.6733 168.282 49.9549 167.958 49.8407 167.627C49.7606 167.395 49.5234 167.297 49.3125 167.227C47.7631 166.707 46.1801 166.184 44.566 166.254C43.8039 166.287 43.0392 166.471 42.3414 166.825C41.7966 167.102 40.6672 167.78 40.5079 168.513C40.343 169.271 41.7578 169.824 42.2779 170.026C43.104 170.349 43.9888 170.474 44.8595 170.411Z" fill="black"/>
<path d="M38.3945 166.357C39.9878 165.992 41.6296 165.903 43.2462 166.094C43.648 166.141 44.0578 166.209 44.4122 166.428C44.7666 166.648 45.0585 167.05 45.0717 167.508C45.0849 167.969 44.8135 168.393 44.4723 168.644C44.131 168.895 43.7263 169.004 43.3302 169.108C42.1625 169.416 40.9646 169.714 39.7739 169.553C38.8989 169.434 37.8701 169.008 37.304 168.197C36.57 167.146 37.5383 166.553 38.3945 166.357Z" fill="#6E4BA6"/>
<path opacity="0.1" d="M38.3945 166.357C39.9878 165.992 41.6296 165.903 43.2462 166.094C43.648 166.141 44.0578 166.209 44.4122 166.428C44.7666 166.648 45.0585 167.05 45.0717 167.508C45.0849 167.969 44.8135 168.393 44.4723 168.644C44.131 168.895 43.7263 169.004 43.3302 169.108C42.1625 169.416 40.9646 169.714 39.7739 169.553C38.8989 169.434 37.8701 169.008 37.304 168.197C36.57 167.146 37.5383 166.553 38.3945 166.357Z" fill="white"/>
<path d="M33.5343 166.342C33.2254 166.107 32.9174 165.841 32.7419 165.468C32.5664 165.096 32.5583 164.591 32.8165 164.286C33.1858 163.852 35.2408 163.235 35.7572 163.115C36.1883 163.016 36.6279 163.198 37.0352 163.387C37.6239 163.66 38.205 163.955 38.7771 164.269C39.0621 164.426 39.3513 164.594 39.5694 164.854C39.7875 165.115 39.9256 165.49 39.8455 165.839C39.733 166.329 39.2614 166.579 38.8359 166.732C37.7364 167.127 36.5785 167.31 35.4262 167.272C35.5058 167.255 34.0455 166.733 33.5343 166.342Z" fill="#6E4BA6"/>
<g opacity="0.1">
<path d="M33.5343 166.342C33.2254 166.107 32.9174 165.841 32.7419 165.468C32.5664 165.096 32.5583 164.591 32.8165 164.286C33.1858 163.852 35.2408 163.235 35.7572 163.115C36.1883 163.016 36.6279 163.198 37.0352 163.387C37.6239 163.66 38.205 163.955 38.7771 164.269C39.0621 164.426 39.3513 164.594 39.5694 164.854C39.7875 165.115 39.9256 165.49 39.8455 165.839C39.733 166.329 39.2614 166.579 38.8359 166.732C37.7364 167.127 36.5785 167.31 35.4262 167.272C35.5058 167.255 34.0455 166.733 33.5343 166.342Z" fill="black"/>
</g>
<path d="M37.707 167.153C38.2122 167.308 38.6944 167.653 38.9321 168.182C39.1699 168.711 39.1013 169.434 38.694 169.807C38.3979 170.078 37.9941 170.127 37.6149 170.164C37.1472 170.211 36.6795 170.257 36.2117 170.304C35.9156 170.333 35.5906 170.355 35.3486 170.158C35.0219 169.893 34.9938 169.363 34.9963 168.908C34.9989 168.473 35.004 168.025 35.154 167.624C35.3457 167.112 35.7035 166.854 36.17 166.928C36.676 167.008 37.2111 167 37.707 167.153Z" fill="#6E4BA6"/>
<path d="M26.5709 157.793C25.7385 156.726 24.541 156.035 23.2911 155.902C23.2183 155.894 23.1386 155.89 23.079 155.937C22.9993 156.001 22.9874 156.128 22.9853 156.239C22.9546 157.914 23.4637 159.595 24.3957 160.895C24.8256 161.495 25.3615 162.027 26.0103 162.26C26.4797 162.429 27.0399 162.427 27.4868 162.172C27.935 161.916 27.8532 161.55 27.8072 161.046C27.6985 159.847 27.2764 158.698 26.5709 157.793Z" fill="#6E4BA6"/>
<path opacity="0.2" d="M26.5709 157.793C25.7385 156.726 24.541 156.035 23.2911 155.902C23.2183 155.894 23.1386 155.89 23.079 155.937C22.9993 156.001 22.9874 156.128 22.9853 156.239C22.9546 157.914 23.4637 159.595 24.3957 160.895C24.8256 161.495 25.3615 162.027 26.0103 162.26C26.4797 162.429 27.0399 162.427 27.4868 162.172C27.935 161.916 27.8532 161.55 27.8072 161.046C27.6985 159.847 27.2764 158.698 26.5709 157.793Z" fill="black"/>
<path d="M34.6006 159.313C33.9842 158.556 33.5322 157.583 33.5121 156.553C33.4955 155.689 33.7818 154.846 34.1929 154.119C34.604 153.392 35.1365 152.765 35.6656 152.144C35.8373 154.016 35.8871 155.902 35.8143 157.782C35.7989 158.181 35.7742 158.595 35.6064 158.947C35.4385 159.298 35.0866 159.569 34.7429 159.481L34.6006 159.313Z" fill="#6E4BA6"/>
<path d="M32.2197 153.589C33.3809 154.769 34.1107 156.481 34.2057 158.247C34.2393 158.87 34.1908 159.522 33.9232 160.068C33.6557 160.614 33.1292 161.03 32.5809 160.974C32.0084 160.914 31.5653 160.385 31.242 159.845C30.7048 158.948 30.0522 157.668 30.358 156.563C30.6861 155.38 31.334 154.32 32.2197 153.589Z" fill="#6E4BA6"/>
<path opacity="0.1" d="M32.2197 153.589C33.3809 154.769 34.1107 156.481 34.2057 158.247C34.2393 158.87 34.1908 159.522 33.9232 160.068C33.6557 160.614 33.1292 161.03 32.5809 160.974C32.0084 160.914 31.5653 160.385 31.242 159.845C30.7048 158.948 30.0522 157.668 30.358 156.563C30.6861 155.38 31.334 154.32 32.2197 153.589Z" fill="black"/>
<path d="M28.6958 159.804C27.7484 158.921 27.3611 157.443 27.4037 156.052C27.4463 154.662 27.8604 153.325 28.2698 152.013C29.1933 153.28 29.9465 154.707 30.4944 156.229C30.7044 156.812 30.8863 157.421 30.8986 158.051C30.911 158.681 30.7329 159.34 30.3197 159.76C29.906 160.18 29.2351 160.293 28.7874 159.92C28.8402 159.952 28.893 159.983 28.9458 160.015L28.6958 159.804Z" fill="#6E4BA6"/>
<g opacity="0.2">
<path d="M28.6958 159.804C27.7484 158.921 27.3611 157.443 27.4037 156.052C27.4463 154.662 27.8604 153.325 28.2698 152.013C29.1933 153.28 29.9465 154.707 30.4944 156.229C30.7044 156.812 30.8863 157.421 30.8986 158.051C30.911 158.681 30.7329 159.34 30.3197 159.76C29.906 160.18 29.2351 160.293 28.7874 159.92C28.8402 159.952 28.893 159.983 28.9458 160.015L28.6958 159.804Z" fill="black"/>
</g>
<path d="M26.5347 154.348C26.2983 156.066 26.0661 157.824 26.3562 159.531C26.6463 161.238 27.5648 162.911 29.0008 163.513C29.5985 163.764 30.3674 163.766 30.7683 163.204C31.0379 162.827 31.0648 162.283 30.9434 161.816C30.822 161.35 30.5727 160.942 30.3274 160.543C29.181 158.68 26.7928 154.163 26.5496 154.353L26.5347 154.348Z" fill="#6E4BA6"/>
<path d="M26.5347 154.348C26.2983 156.066 26.0661 157.824 26.3562 159.531C26.6463 161.238 27.5648 162.911 29.0008 163.513C29.5985 163.764 30.3674 163.766 30.7683 163.204C31.0379 162.827 31.0648 162.283 30.9434 161.816C30.822 161.35 30.5727 160.942 30.3274 160.543C29.181 158.68 26.7928 154.163 26.5496 154.353L26.5347 154.348Z" fill="#6E4BA6"/>
<g opacity="0.1">
<path d="M26.5347 154.348C26.2983 156.066 26.0661 157.824 26.3562 159.531C26.6463 161.238 27.5648 162.911 29.0008 163.513C29.5985 163.764 30.3674 163.766 30.7683 163.204C31.0379 162.827 31.0648 162.283 30.9434 161.816C30.822 161.35 30.5727 160.942 30.3274 160.543C29.181 158.68 26.7928 154.163 26.5496 154.353L26.5347 154.348Z" fill="black"/>
</g>
<path d="M30.974 156.669C30.413 157.687 29.9414 158.789 29.748 159.969C29.5546 161.15 29.6585 162.422 30.1881 163.462C30.7171 164.502 31.7072 165.268 32.7649 165.276C33.5829 165.282 34.3837 164.787 34.8272 164.008C35.3162 163.149 34.9588 162.369 34.5857 161.528C33.7379 159.616 32.3325 158.112 30.974 156.669Z" fill="#6E4BA6"/>
<path d="M20.4254 159.979C20.1379 160.446 20.1489 161.088 20.3415 161.613C20.5345 162.139 20.8846 162.569 21.2497 162.959C23.7299 165.616 27.2559 166.965 30.6469 166.554C30.9293 166.52 31.2479 166.447 31.3945 166.171C31.5555 165.867 31.4107 165.45 31.1628 165.233C30.9148 165.016 30.5945 164.945 30.2886 164.87C28.5522 164.445 26.8925 163.679 25.376 162.631C23.8551 161.581 22.0476 160.855 20.4254 159.979Z" fill="#6E4BA6"/>
<path opacity="0.1" d="M20.4254 159.979C20.1379 160.446 20.1489 161.088 20.3415 161.613C20.5345 162.139 20.8846 162.569 21.2497 162.959C23.7299 165.616 27.2559 166.965 30.6469 166.554C30.9293 166.52 31.2479 166.447 31.3945 166.171C31.5555 165.867 31.4107 165.45 31.1628 165.233C30.9148 165.016 30.5945 164.945 30.2886 164.87C28.5522 164.445 26.8925 163.679 25.376 162.631C23.8551 161.581 22.0476 160.855 20.4254 159.979Z" fill="black"/>
<path d="M26.2552 159.723C26.0035 159.348 25.6869 158.916 25.2741 158.963C24.9542 159 24.7186 159.324 24.5866 159.657C24.0485 161.007 24.6918 162.66 25.7206 163.572C26.7494 164.484 28.07 164.83 29.3442 165.151C29.7812 165.262 30.2183 165.372 30.6554 165.482C31.1755 165.613 32.2192 165.438 31.7549 164.615C31.4435 164.063 30.4015 163.749 29.9188 163.423C28.5058 162.468 27.2533 161.207 26.2552 159.723Z" fill="#6E4BA6"/>
<path d="M26.4184 170.411C24.7808 170.293 23.2106 169.546 21.8619 168.484C21.6046 168.282 21.323 167.958 21.4372 167.627C21.5173 167.395 21.7545 167.297 21.9654 167.227C23.5148 166.707 25.0978 166.184 26.7119 166.254C27.474 166.287 28.2387 166.471 28.9365 166.825C29.4813 167.102 30.6107 167.78 30.77 168.513C30.9348 169.271 29.5201 169.824 29 170.026C28.1739 170.349 27.2891 170.474 26.4184 170.411Z" fill="#6E4BA6"/>
<path opacity="0.1" d="M26.4184 170.411C24.7808 170.293 23.2106 169.546 21.8619 168.484C21.6046 168.282 21.323 167.958 21.4372 167.627C21.5173 167.395 21.7545 167.297 21.9654 167.227C23.5148 166.707 25.0978 166.184 26.7119 166.254C27.474 166.287 28.2387 166.471 28.9365 166.825C29.4813 167.102 30.6107 167.78 30.77 168.513C30.9348 169.271 29.5201 169.824 29 170.026C28.1739 170.349 27.2891 170.474 26.4184 170.411Z" fill="black"/>
<path d="M32.8834 166.357C31.2901 165.992 29.6483 165.903 28.0317 166.094C27.6299 166.141 27.2201 166.209 26.8657 166.428C26.5113 166.648 26.2194 167.05 26.2062 167.508C26.193 167.969 26.4644 168.393 26.8056 168.644C27.1469 168.895 27.5515 169.004 27.9473 169.108C29.1154 169.416 30.3129 169.714 31.5036 169.553C32.3786 169.434 33.4073 169.008 33.9735 168.197C34.7079 167.146 33.7396 166.553 32.8834 166.357Z" fill="#6E4BA6"/>
<path opacity="0.1" d="M32.8834 166.357C31.2901 165.992 29.6483 165.903 28.0317 166.094C27.6299 166.141 27.2201 166.209 26.8657 166.428C26.5113 166.648 26.2194 167.05 26.2062 167.508C26.193 167.969 26.4644 168.393 26.8056 168.644C27.1469 168.895 27.5515 169.004 27.9473 169.108C29.1154 169.416 30.3129 169.714 31.5036 169.553C32.3786 169.434 33.4073 169.008 33.9735 168.197C34.7079 167.146 33.7396 166.553 32.8834 166.357Z" fill="white"/>
<path d="M37.7432 166.342C38.052 166.107 38.36 165.841 38.5355 165.468C38.7115 165.096 38.7191 164.591 38.461 164.286C38.0916 163.852 36.0366 163.235 35.5203 163.115C35.0892 163.016 34.6496 163.198 34.2423 163.387C33.6536 163.66 33.0725 163.955 32.5004 164.269C32.2154 164.426 31.9261 164.594 31.708 164.854C31.4899 165.115 31.3519 165.49 31.432 165.839C31.5444 166.329 32.016 166.579 32.4416 166.732C33.5411 167.127 34.699 167.31 35.8513 167.272C35.7721 167.255 37.2324 166.733 37.7432 166.342Z" fill="#6E4BA6"/>
<g opacity="0.1">
<path d="M37.7432 166.342C38.052 166.107 38.36 165.841 38.5355 165.468C38.7115 165.096 38.7191 164.591 38.461 164.286C38.0916 163.852 36.0366 163.235 35.5203 163.115C35.0892 163.016 34.6496 163.198 34.2423 163.387C33.6536 163.66 33.0725 163.955 32.5004 164.269C32.2154 164.426 31.9261 164.594 31.708 164.854C31.4899 165.115 31.3519 165.49 31.432 165.839C31.5444 166.329 32.016 166.579 32.4416 166.732C33.5411 167.127 34.699 167.31 35.8513 167.272C35.7721 167.255 37.2324 166.733 37.7432 166.342Z" fill="black"/>
</g>
<path d="M33.5709 167.153C33.0657 167.308 32.583 167.653 32.3453 168.182C32.1076 168.711 32.1762 169.434 32.5835 169.807C32.8795 170.078 33.2834 170.127 33.6621 170.164C34.1298 170.211 34.5976 170.257 35.0653 170.304C35.3614 170.333 35.6864 170.355 35.9284 170.158C36.2552 169.893 36.2833 169.363 36.2807 168.908C36.2782 168.473 36.273 168.025 36.1231 167.624C35.9314 167.112 35.5736 166.854 35.1075 166.928C34.6018 167.008 34.0668 167 33.5709 167.153Z" fill="#6E4BA6"/>
<path d="M35.885 157.108C35.7985 157.04 35.7124 156.982 35.6396 156.954C35.6694 156.942 35.6988 156.936 35.7231 156.939C35.7393 156.939 35.7555 156.945 35.7716 156.954H35.7742C35.7904 156.96 35.804 156.973 35.8172 156.988C35.8309 157.003 35.8441 157.019 35.8551 157.04C35.8658 157.055 35.8739 157.071 35.8794 157.092C35.8824 157.095 35.885 157.101 35.885 157.108Z" fill="#6E4BA6"/>
<path opacity="0.1" d="M35.8875 157.108H35.885C35.7985 157.04 35.7124 156.982 35.6396 156.954C35.6694 156.942 35.6988 156.936 35.7231 156.939C35.7393 156.939 35.7555 156.945 35.7716 156.954H35.7742C35.7904 156.96 35.804 156.973 35.8172 156.988C35.8309 157.003 35.8441 157.019 35.8551 157.04C35.8658 157.055 35.8739 157.071 35.8794 157.092C35.8824 157.095 35.885 157.101 35.8875 157.108Z" fill="#6E4BA6"/>
<path d="M37.6358 161.873C37.4603 162.345 37.2367 162.807 36.9099 163.163C36.5862 163.521 36.1465 163.769 35.6933 163.753C35.6745 163.753 35.6583 163.753 35.6392 163.75H35.6366C35.6204 163.753 35.6017 163.753 35.5825 163.753C35.1292 163.769 34.6922 163.521 34.3658 163.163C34.0421 162.807 33.818 162.345 33.6399 161.873C33.4108 161.248 33.2514 160.568 33.3405 159.898C33.4401 159.159 33.8368 158.504 34.3279 158.002C34.4574 158.002 34.8677 157.524 34.9972 157.426C35.0078 157.42 35.0189 157.411 35.0321 157.402C35.0428 157.389 35.0564 157.38 35.0726 157.368C35.1591 157.298 35.2775 157.193 35.3938 157.105C35.4479 157.065 35.5016 157.028 35.5501 156.997C35.5638 156.991 35.5799 156.982 35.5932 156.976C35.6093 156.967 35.6255 156.961 35.6392 156.955C35.712 156.983 35.7985 157.04 35.8845 157.108H35.8871C36.0434 157.224 36.2002 157.368 36.2782 157.427C36.4102 157.525 36.8179 158.003 36.95 158.003C37.4411 158.505 37.8377 159.16 37.9349 159.898C38.0273 160.568 37.868 161.248 37.6358 161.873Z" fill="#6E4BA6"/>
<path d="M35.6396 156.954C35.626 156.96 35.6098 156.967 35.5936 156.976C35.5799 156.981 35.5667 156.988 35.5506 156.997C35.502 157.027 35.4479 157.064 35.3942 157.104C35.4291 157.006 35.4832 156.945 35.5561 156.939C35.5799 156.936 35.6098 156.942 35.6396 156.954Z" fill="#6E4BA6"/>
<g opacity="0.2">
<path d="M37.6358 161.873C37.4603 162.345 37.2367 162.807 36.9099 163.163C36.5862 163.521 36.1465 163.769 35.6933 163.753C35.6745 163.753 35.6583 163.753 35.6392 163.75H35.6366C35.6204 163.753 35.6017 163.753 35.5825 163.753C35.1292 163.769 34.6922 163.521 34.3658 163.163C34.0421 162.807 33.818 162.345 33.6399 161.873C33.4108 161.248 33.2514 160.568 33.3405 159.898C33.4401 159.159 33.8368 158.504 34.3279 158.002C34.4574 158.002 34.8677 157.524 34.9972 157.426C35.0781 157.368 35.24 157.221 35.3938 157.104C35.4828 157.037 35.5663 156.982 35.6392 156.954C35.712 156.982 35.801 157.04 35.8875 157.108C36.0439 157.224 36.2006 157.368 36.2786 157.426C36.4106 157.524 36.8183 158.002 36.9504 158.002C37.4416 158.505 37.8382 159.16 37.9353 159.898C38.0273 160.568 37.868 161.248 37.6358 161.873Z" fill="white"/>
<path d="M35.6396 156.954C35.5667 156.982 35.4832 157.037 35.3942 157.104C35.4291 157.006 35.4832 156.945 35.5561 156.939C35.5799 156.936 35.6098 156.942 35.6396 156.954Z" fill="white"/>
</g>
<path opacity="0.1" d="M35.8875 157.108C35.801 157.04 35.712 156.982 35.6392 156.954C35.669 156.942 35.6984 156.936 35.7227 156.939C35.7959 156.945 35.85 157.006 35.8875 157.108Z" fill="white"/>
<path d="M85.2635 179.916H129.74V181.318C129.74 181.676 129.274 181.965 128.701 181.965H86.3034C85.7291 181.965 85.2635 181.675 85.2635 181.318V179.916Z" fill="#263238"/>
<path d="M122.365 169.643V151.348H92.6303V169.643C92.6303 172.167 87.7402 177.109 85.4543 179.281C85.0484 179.667 85.3235 180.349 85.8837 180.349H129.123C129.683 180.349 129.959 179.666 129.552 179.281C127.262 177.108 122.365 172.167 122.365 169.643Z" fill="#BFBFBF" stroke="#263238" stroke-linecap="round" stroke-linejoin="round"/>
<path d="M116.779 170.046H120.625" stroke="#263238" stroke-linecap="round" stroke-linejoin="round"/>
<path d="M94.4076 170.046H113.944" stroke="#263238" stroke-linecap="round" stroke-linejoin="round"/>
<g opacity="0.5">
<path d="M89.6496 176.018L98.1525 170.957L99.1647 171.058C99.1647 171.058 88.4346 178.448 90.6618 178.65C92.8889 178.853 97.8488 179.055 97.8488 179.055L88.0712 179.408C87.5204 179.428 87.2137 178.779 87.5784 178.366L89.6496 176.018Z" fill="white"/>
<path d="M93.0917 170.855C93.0917 170.552 121.739 170.855 121.739 170.855C121.739 170.855 121.941 172.374 122.751 173.083C123.561 173.791 121.739 171.564 120.423 171.564C119.107 171.564 94.6099 170.957 93.9011 171.463C93.1926 171.969 88.1313 177.739 88.1313 177.739L93.0917 170.855Z" fill="white"/>
<path d="M93.8001 157.392L93.7085 167.66C93.7034 168.25 94.1792 168.73 94.768 168.73H121.334V163.769C121.334 163.769 120.929 167.009 119.916 167.312C118.904 167.616 96.1529 168.438 95.6217 167.414C94.2052 164.681 93.8001 157.392 93.8001 157.392Z" fill="white"/>
</g>
<path d="M122.448 156.684L122.352 156.66C112.579 154.217 102.354 154.225 92.5856 156.684V151.42H122.448V156.684Z" fill="#263238"/>
<path d="M166.514 151.521H48.2488C47.8756 151.521 47.5727 151.218 47.5727 150.845V84.912C47.5727 84.5389 47.8752 84.236 48.2488 84.236H166.514C166.888 84.236 167.19 84.5384 167.19 84.912V150.845C167.19 151.218 166.888 151.521 166.514 151.521Z" fill="white"/>
<path d="M168.151 82.9038C167.848 82.6525 167.486 82.4735 167.09 82.3841C166.903 82.3415 166.711 82.3202 166.515 82.3202H48.2488C46.8174 82.3202 45.6544 83.4832 45.6544 84.9103V150.847C45.6544 151.511 45.9015 152.116 46.319 152.572C46.7918 153.1 47.482 153.437 48.2488 153.437H166.515C167.942 153.437 169.105 152.274 169.105 150.847V84.9103C169.105 84.1009 168.73 83.3767 168.151 82.9038ZM166.975 150.847C166.975 151.102 166.77 151.307 166.515 151.307H48.2488C47.9932 151.307 47.7844 151.102 47.7844 150.847V84.9103C47.7844 84.6589 47.9932 84.4502 48.2488 84.4502H166.515C166.77 84.4502 166.975 84.6589 166.975 84.9103V150.847Z" fill="#263238"/>
<path d="M166.988 138.867H47.539V151.217H166.988V138.867Z" fill="#6E4BA6"/>
<path d="M81.3733 132.586C81.3733 132.586 96.6096 122.932 151.944 120.23H166.816C166.816 120.23 166.886 142.163 166.886 145.005C166.886 145.005 65.1763 150.619 81.3733 132.586Z" fill="#6E4BA6"/>
<path opacity="0.3" d="M81.3762 132.586C81.3762 132.586 96.639 122.932 152.071 120.23H166.968C166.968 120.23 167.038 142.163 167.038 145.005C167.038 145.005 65.1512 150.619 81.3762 132.586Z" fill="white"/>
<path d="M166.548 129.278H151.721C96.5559 131.981 81.3686 141.633 81.3686 141.633C78.4645 144.877 79.0929 145.949 82.5158 147.912L48.0503 149.106L47.793 105.118C48.0017 101.65 51.4813 99.0978 54.6579 98.8975C64.936 98.2492 66.6843 107.968 81.1027 111.022C84.6019 111.763 87.8774 109.145 90.7674 106.863C93.6544 104.579 97.2771 102.353 100.601 103.762C104.243 105.303 105.637 110.489 109.191 112.258C115.011 115.156 121.275 107.107 127.539 108.488C132.448 109.573 135.227 116.022 140.153 117.012C142.893 117.561 150.009 110.97 152.47 109.539C154.929 108.106 157.424 106.472 160.203 106.284C162.986 106.096 166.127 107.967 166.423 110.994C167.638 110.932 166.548 129.278 166.548 129.278Z" fill="#6E4BA6"/>
<path opacity="0.4" d="M166.572 128.908C166.558 129.149 166.549 129.278 166.549 129.278H151.723C107.88 131.427 89.2896 137.965 83.5045 140.561C82.0106 141.227 81.3703 141.633 81.3703 141.633C78.4662 144.877 79.095 145.949 82.5175 147.913L48.0515 149.106L47.7921 105.118C48.0008 101.65 51.4825 99.0978 54.6571 98.8976C64.936 98.2501 66.6843 107.967 81.1019 111.022C84.6006 111.762 87.8766 109.145 90.7666 106.863C93.6536 104.579 97.2763 102.353 100.6 103.762C104.243 105.303 105.636 110.489 109.191 112.258C115.01 115.156 121.274 107.107 127.538 108.488C132.447 109.573 135.226 116.022 140.152 117.012C142.892 117.561 150.008 110.97 152.469 109.539C154.928 108.106 157.423 106.472 160.202 106.284C162.985 106.096 166.126 107.967 166.422 110.994C167.536 110.938 166.716 126.312 166.572 128.908Z" fill="white"/>
<path opacity="0.3" d="M166.572 128.908C166.558 129.149 166.549 129.278 166.549 129.278H151.723C107.88 131.426 89.2896 137.965 83.5045 140.561C79.4984 138.634 78.272 136.044 81.3677 132.586C81.3677 132.586 96.558 122.933 151.723 120.23H166.547C166.546 120.23 166.558 124.16 166.572 128.908Z" fill="white"/>
<path d="M48.089 149.226V126.636C48.089 126.636 127.843 137.052 151.832 139.405C164.158 140.613 166.728 145.126 166.728 145.126L48.089 149.226Z" fill="#6E4BA6"/>
<path opacity="0.2" d="M48.089 149.226V126.636C48.089 126.636 127.843 137.052 151.832 139.405C164.158 140.613 166.728 145.126 166.728 145.126L48.089 149.226Z" fill="white"/>
<path d="M123.086 122.835C123.086 122.835 136.042 118.82 145.99 103.163C150.965 95.334 156.104 98.1111 160 102.846C164.281 108.049 166.548 114.868 166.548 121.867V122.374C166.548 122.374 160.777 129.816 123.086 122.835Z" fill="#6E4BA6"/>
<path opacity="0.2" d="M124.393 122.342C124.393 122.342 136.042 118.82 145.991 103.163C150.965 95.334 156.104 98.1111 160 102.846C164.281 108.049 166.548 114.868 166.548 121.867V122.374C166.548 122.374 165.486 123.986 160.87 124.855C154.198 126.112 142.018 127.317 124.393 122.342Z" fill="white"/>
<path d="M149.173 99.5255C149.173 99.5255 147.397 102.621 150.211 102.218C151.357 102.053 150.235 105.943 148.502 110.609C145.008 120.017 140.698 125.365 131.786 124.282C128.571 123.891 117.568 123.286 117.568 123.286C128.818 118.041 139.08 110.216 147.763 100.814C148.135 100.411 148.527 100.055 148.904 99.782L149.173 99.5255Z" fill="#6E4BA6"/>
<path opacity="0.6" d="M149.173 99.5255C149.173 99.5255 147.397 102.621 150.211 102.218C151.357 102.053 150.235 105.943 148.502 110.609C145.008 120.017 140.698 125.365 131.786 124.282C128.571 123.891 117.568 123.286 117.568 123.286C128.818 118.041 139.08 110.216 147.763 100.814C148.135 100.411 148.527 100.055 148.904 99.782L149.173 99.5255Z" fill="white"/>
<path opacity="0.4" d="M144.572 125.643C148.032 122.987 150.479 119.035 151.449 114.536L151.785 112.979L153.461 125.822C153.461 125.822 148.347 125.999 144.572 125.643Z" fill="white"/>
<g opacity="0.3">
<path opacity="0.4" d="M168.151 82.9038L167.192 85.873L166.975 86.5461L161.207 104.43L160.615 106.27L156.112 120.23L154.344 125.708L154.336 125.734L153.194 129.278L149.986 139.217L149.79 139.826L147.903 145.683L147.873 145.777L147.115 148.116L146.757 149.232L146.506 150.012L146.088 151.307L146.02 151.52L145.402 153.437L145.398 153.445H131.536L131.54 153.437L132.154 151.52L132.222 151.307L132.852 149.338L133.108 148.538L133.836 146.263V146.258L133.973 145.832L134.011 145.713L136.567 137.73L139.021 130.07V130.066L140.482 125.517L140.537 125.338L141.666 121.815L141.982 120.826L141.986 120.818L141.99 120.805L143.558 115.906L148.661 99.9693L148.674 99.9267L153.633 84.4501L153.701 84.2371L154.293 82.384H167.09C167.486 82.4735 167.848 82.6524 168.151 82.9038Z" fill="white"/>
</g>
<path opacity="0.2" d="M82.8187 82.384L82.2223 84.2371L82.1541 84.4501L74.3114 108.766L67.7255 129.176L64.8202 138.194L61.4505 148.64L61.4079 148.768L60.6752 151.038L60.59 151.307L60.5218 151.52L59.9041 153.437H48.2488C47.482 153.437 46.7918 153.1 46.319 152.572L47.5714 148.657L47.7844 147.992L47.9846 147.366L48.0358 147.204L48.04 147.191L48.0911 147.034L49.1135 143.847L54.3619 127.455L62.8222 101.039L68.1387 84.4501L68.2069 84.2371L68.799 82.384H82.8187Z" fill="white"/>
<path opacity="0.3" d="M45.717 144.795L60.6032 98.6325L61.3461 96.3274L62.6424 92.3068L63.837 88.6045L65.8434 82.3823H62.2348L59.0555 92.3068L57.7703 96.3274L57.0312 98.6325L45.717 133.956V144.795Z" fill="white"/>
<path d="M88.5569 65.3892L89.1652 67.7565C89.6014 69.4541 90.8377 70.8331 92.4778 71.4512L93.7912 71.9458L92.3777 72.4783C90.7934 73.0751 89.5827 74.3834 89.1098 76.009L88.3801 78.5181L87.6729 76.087C87.1873 74.4175 85.9246 73.0858 84.2837 72.512L82.6636 71.9454L84.1814 71.4146C85.8795 70.8212 87.1681 69.4179 87.6154 67.676L88.2029 65.3884C88.2502 65.2065 88.51 65.2065 88.5569 65.3892Z" fill="white"/>
<path d="M128.947 65.3892L129.555 67.7565C129.991 69.4541 131.228 70.8331 132.868 71.4512L134.181 71.9458L132.768 72.4783C131.183 73.0751 129.973 74.3834 129.5 76.009L128.77 78.5181L128.063 76.087C127.577 74.4175 126.315 73.0858 124.674 72.512L123.054 71.9454L124.571 71.4146C126.269 70.8212 127.558 69.4179 128.005 67.676L128.593 65.3884C128.64 65.2065 128.9 65.2065 128.947 65.3892Z" fill="white"/>
<path d="M108.913 58.4459L109.668 61.3857C110.21 63.494 111.745 65.2061 113.782 65.9733L115.412 66.5876L113.657 67.2488C111.69 67.99 110.186 69.6144 109.599 71.6332L108.693 74.7489L107.815 71.7299C107.212 69.657 105.644 68.0032 103.606 67.2905L101.594 66.5872L103.479 65.9282C105.588 65.1912 107.188 63.4489 107.744 61.2856L108.473 58.4451C108.532 58.2189 108.855 58.2189 108.913 58.4459Z" fill="white"/>
<path d="M190.574 177.473L189.156 173.626L185.512 174.133L186.828 177.676C186.828 177.676 188.954 179.498 190.574 177.473Z" fill="white" stroke="#263238" stroke-miterlimit="10" stroke-linecap="round" stroke-linejoin="round"/>
<path d="M186.7 177.108C186.557 178.108 186.418 179.156 186.687 180.119C186.956 181.081 187.778 181.907 188.612 181.691C188.804 181.641 188.986 181.54 189.181 181.51C189.549 181.454 189.906 181.657 190.247 181.834C192.319 182.908 197.787 182.58 198.22 182.361C198.277 182.331 198.335 182.287 198.392 182.23C198.804 181.816 198.67 181.222 198.147 180.961C195.667 179.724 195.822 180.025 191.737 177.597C191.003 177.161 190.559 177.352 190.177 177.731C189.137 178.763 187.37 178.412 186.7 177.108Z" fill="white" stroke="#263238" stroke-miterlimit="10" stroke-linecap="round" stroke-linejoin="round"/>
<path d="M183.822 174.343C183.651 176.235 183.261 178.105 182.661 179.907C182.525 180.317 182.524 180.961 182.956 180.975C183.109 180.979 183.245 180.885 183.366 180.792C185.004 179.534 186.291 177.825 187.048 175.903C187.212 175.488 187.349 175.013 187.162 174.608C187.078 174.427 186.937 174.28 186.798 174.137C185.592 172.889 184.031 171.609 183.822 174.343Z" fill="white" stroke="#263238" stroke-miterlimit="10" stroke-linecap="round" stroke-linejoin="round"/>
<path d="M185.096 125.502C185.096 125.502 186.75 129.419 187.097 130.325C187.444 131.233 195.46 144.929 196.156 154.272C196.288 156.046 186.882 174.572 186.882 174.572L185.404 173.473C185.404 173.473 188.678 155.928 188.588 154.427C188.498 152.929 182.806 141.219 182.806 141.219C182.806 141.219 179.239 137.857 178.039 134.316L185.096 125.502Z" fill="#263238"/>
<path d="M184.202 134.697C184.202 134.697 182.662 137.216 182.612 137.599C182.562 137.982 186.608 159.611 187.952 164.666C188.801 167.918 189.495 171.227 190.027 174.582C190.027 174.582 190.657 175.661 189.967 176.596C189.276 177.531 186.941 177.921 186.585 176.961C186.231 176.003 182.242 170.753 180.889 165.854C179.544 160.983 177.794 152.839 176.61 149.736C175.042 145.772 173.72 141.723 172.649 137.615C171.316 132.42 169.991 126.838 169.991 126.838C170.788 127.007 171.593 127.128 172.403 127.199C174.303 127.367 176.226 127.265 178.12 126.894C182.501 125.996 184.654 123.514 184.654 123.514C184.654 123.514 185.351 126.462 185.553 127.042L184.202 134.697Z" fill="#263238"/>
<path d="M195.236 155.968C194.74 156.623 194.106 157.174 193.386 157.57" stroke="#BFBFBF" stroke-miterlimit="10" stroke-linecap="round" stroke-linejoin="round"/>
<path d="M195.894 154.871C195.809 155.058 195.713 155.24 195.609 155.416" stroke="#BFBFBF" stroke-miterlimit="10" stroke-linecap="round" stroke-linejoin="round"/>
<path d="M181.156 128.003C181.996 129.964 182.668 132.716 182.25 134.808C182.183 135.142 181.703 135.857 181.703 135.857" stroke="#BFBFBF" stroke-miterlimit="10" stroke-linecap="round" stroke-linejoin="round"/>
<path d="M174.476 129.254C174.467 130.287 174.417 131.997 174.072 132.972C173.727 133.946 173.068 134.848 172.132 135.286" stroke="#BFBFBF" stroke-miterlimit="10" stroke-linecap="round" stroke-linejoin="round"/>
<path d="M180.118 130.176C181.149 133.432 181.85 136.654 183.398 142.161" stroke="#BFBFBF" stroke-miterlimit="10" stroke-linecap="round" stroke-linejoin="round"/>
<path d="M179.559 128.506C179.65 128.762 179.737 129.016 179.822 129.268" stroke="white" stroke-miterlimit="10" stroke-linecap="round" stroke-linejoin="round"/>
<path d="M188.406 153.527C188.897 154.851 189.581 156.102 190.428 157.231" stroke="#BFBFBF" stroke-miterlimit="10" stroke-linecap="round" stroke-linejoin="round"/>
<path d="M188.932 154.762C189.113 156.762 189.662 158.725 190.538 160.534" stroke="#BFBFBF" stroke-miterlimit="10" stroke-linecap="round" stroke-linejoin="round"/>
<path d="M172.923 134.756C175.129 142.296 177.132 147.962 178.989 153.645" stroke="#BFBFBF" stroke-miterlimit="10" stroke-linecap="round" stroke-linejoin="round"/>
<path d="M179.456 155.661C179.408 155.419 179.357 155.176 179.303 154.932" stroke="#BFBFBF" stroke-miterlimit="10" stroke-linecap="round" stroke-linejoin="round"/>
<path d="M187.712 177.384C187.043 176.245 182.215 167.398 181.221 163.521C180.561 160.944 180.047 159.117 179.623 156.577" stroke="#BFBFBF" stroke-miterlimit="10" stroke-linecap="round" stroke-linejoin="round"/>
<path d="M187.437 161.444L189.209 169.919" stroke="#BFBFBF" stroke-miterlimit="10" stroke-linecap="round" stroke-linejoin="round"/>
<path d="M178.85 101.824L176.245 99.3236L171.661 97.0317C171.661 97.0317 168.536 99.7402 168.224 102.97C167.911 106.199 172.286 119.326 172.703 119.221C173.12 119.117 170.307 130.889 170.307 130.889C170.307 130.889 182.6 134.118 185.413 129.326L186.038 127.764L184.371 121.409C184.371 121.409 178.85 102.345 178.85 101.824Z" fill="white" stroke="#263238" stroke-miterlimit="10" stroke-linecap="round" stroke-linejoin="round"/>
<path d="M171.332 91.8438C171.823 93.2407 171.949 94.7398 171.699 96.1988C171.277 98.6232 174.522 99.7236 175.288 100.046C176.053 100.368 176.453 99.4002 176.663 98.1895C176.874 96.9789 177.106 93.5738 177.106 93.5738C177.106 93.5738 173.861 89.9055 171.332 91.8438Z" fill="white" stroke="#263238" stroke-miterlimit="10" stroke-linecap="round" stroke-linejoin="round"/>
<path d="M171.805 95.2591C171.805 95.2591 174.443 100.997 176.913 96.2141C179.383 91.431 172.608 96.7803 171.805 95.2591Z" fill="#263238"/>
<path d="M178.713 92.9178C177.916 95.8397 176.705 97.2268 175.086 97.2C173.609 97.174 171.347 95.2923 170.745 92.9353C170.745 92.9353 170.745 92.9353 170.743 92.9319C170.673 92.862 169.59 91.7284 169.33 91.4524C169.064 91.1661 168.929 90.7516 169.025 90.372C169.117 90.0104 169.445 89.7062 169.817 89.6734C169.83 89.67 169.846 89.67 169.858 89.6696C170.049 89.6619 170.225 89.7228 170.384 89.8204C170.327 88.7536 170.322 87.6852 170.372 86.6185C170.934 84.2453 172.118 82.4757 174.694 82.8003C177.273 83.1253 179.098 84.9797 178.987 86.0213C178.9 86.8294 178.727 88.979 178.517 91.1916C178.461 91.8017 178.887 92.2754 178.713 92.9178Z" fill="white" stroke="#263238" stroke-miterlimit="10" stroke-linecap="round" stroke-linejoin="round"/>
<path d="M178.326 89.2882C178.326 89.2882 176.845 88.2045 176.626 90.694C176.583 91.1861 177.328 92.0951 177.328 92.0951C177.328 92.0951 176.954 92.7665 176.53 92.68" fill="white"/>
<path d="M178.326 89.2882C178.326 89.2882 176.845 88.2045 176.626 90.694C176.583 91.1861 177.328 92.0951 177.328 92.0951C177.328 92.0951 176.954 92.7665 176.53 92.68" stroke="#263238" stroke-miterlimit="10" stroke-linecap="round" stroke-linejoin="round"/>
<path d="M175.003 89.477C175.003 89.477 174.274 88.8017 173.641 88.9952C173.316 89.0642 173.018 89.2273 172.785 89.4642" fill="white"/>
<path d="M175.003 89.477C175.003 89.477 174.274 88.8017 173.641 88.9952C173.316 89.0642 173.018 89.2273 172.785 89.4642" stroke="#263238" stroke-miterlimit="10" stroke-linecap="round" stroke-linejoin="round"/>
<path d="M174.244 90.7708C174.246 91.0775 174.116 91.3255 173.951 91.325C173.787 91.325 173.653 91.0809 173.65 90.7742C173.648 90.4675 173.78 90.2238 173.946 90.2208C174.111 90.2183 174.241 90.473 174.244 90.7708Z" fill="#263238"/>
<path d="M177.634 90.5859C177.637 90.89 177.504 91.1362 177.341 91.1401C177.179 91.1439 177.041 90.8921 177.04 90.5893C177.039 90.2864 177.168 90.0346 177.333 90.035C177.498 90.035 177.631 90.2817 177.634 90.5859Z" fill="#263238"/>
<path d="M185.061 109.383C184.152 109.277 182.495 109.377 182.15 109.415C182.18 109.26 180.99 107.989 179.605 106.445C179.347 104.823 179.024 100.64 179.891 102.084C179.891 102.084 184.485 108.556 185.038 109.342C185.047 109.357 185.056 109.371 185.061 109.383Z" fill="#6E4BA6" stroke="#263238" stroke-linecap="round" stroke-linejoin="round"/>
<path d="M170.724 96.3024C170.724 96.3024 170.773 96.3339 170.865 96.3923C172.06 97.1505 179.358 101.596 179.648 101.789C179.961 101.998 185.413 121.097 185.725 124.43L186.142 125.889L185.842 126.702C185.708 127.067 185.185 127.045 185.082 126.671L178.329 102.241L170.724 96.3024Z" fill="#6E4BA6"/>
<mask id="mask0_3_7170" style="mask-type:luminance" maskUnits="userSpaceOnUse" x="170" y="96" width="17" height="31">
<path d="M170.724 96.3024C170.724 96.3024 170.773 96.3339 170.865 96.3923C172.06 97.1505 179.358 101.596 179.648 101.789C179.961 101.998 185.413 121.097 185.725 124.43L186.142 125.889L185.842 126.702C185.708 127.067 185.185 127.045 185.082 126.671L178.329 102.241L170.724 96.3024Z" fill="white"/>
</mask>
<g mask="url(#mask0_3_7170)">
<path opacity="0.2" d="M179.575 105.551C179.679 106.025 179.76 106.518 180.012 106.933C180.264 107.348 180.74 107.672 181.217 107.579C181.096 106.039 180.967 104.463 180.333 103.054C180.08 102.493 178.087 99.6332 177.839 101.171C177.756 101.687 178.599 102.718 178.805 103.189C179.138 103.949 179.397 104.741 179.575 105.551Z" fill="black"/>
</g>
<mask id="mask1_3_7170" style="mask-type:luminance" maskUnits="userSpaceOnUse" x="170" y="96" width="17" height="31">
<path d="M170.724 96.3024C170.724 96.3024 170.773 96.3339 170.865 96.3923C172.06 97.1505 179.358 101.596 179.648 101.789C179.961 101.998 185.413 121.097 185.725 124.43L186.142 125.889L185.842 126.702C185.708 127.067 185.185 127.045 185.082 126.671L178.329 102.241L170.724 96.3024Z" fill="white"/>
</mask>
<g mask="url(#mask1_3_7170)">
<path opacity="0.2" d="M185.683 127.072C186.299 126.355 186.182 125.284 186.007 124.355C185.662 122.535 185.225 120.732 184.698 118.956C184.463 118.163 183.646 114.956 183.162 117.299C182.857 118.773 183.507 120.817 183.879 122.241C184.008 122.737 185.786 126.953 185.683 127.072Z" fill="black"/>
</g>
<path d="M170.724 96.3024C170.724 96.3024 170.773 96.3339 170.865 96.3923C172.06 97.1505 179.358 101.596 179.648 101.789C179.961 101.998 185.413 121.097 185.725 124.43L186.142 125.889L185.842 126.702C185.708 127.067 185.185 127.045 185.082 126.671L178.329 102.241L170.724 96.3024Z" stroke="#263238" stroke-linecap="round" stroke-linejoin="round"/>
<path d="M170.724 96.3024C170.724 96.3024 166.244 100.157 167.182 107.241L171.453 119.847C171.453 119.847 169.056 129.743 169.473 129.848C169.89 129.952 181.349 132.14 182.287 128.181C183.225 124.222 183.225 116.305 182.704 113.388C182.183 110.471 176.661 100.105 176.505 100.001C176.558 100.001 170.322 96.3377 170.724 96.3024Z" fill="#6E4BA6"/>
<mask id="mask2_3_7170" style="mask-type:luminance" maskUnits="userSpaceOnUse" x="167" y="96" width="17" height="35">
<path d="M170.724 96.3024C170.724 96.3024 166.244 100.157 167.182 107.241L171.453 119.847C171.453 119.847 169.056 129.743 169.473 129.848C169.89 129.952 181.349 132.14 182.287 128.181C183.225 124.222 183.225 116.305 182.704 113.388C182.183 110.471 176.661 100.105 176.505 100.001C176.558 100.001 170.322 96.3377 170.724 96.3024Z" fill="white"/>
</mask>
<g mask="url(#mask2_3_7170)">
<g opacity="0.2">
<path d="M174.667 118.488C175.144 118.218 175.821 118.4 176.1 118.871C176.378 119.343 176.21 120.024 175.743 120.311C176.709 121.525 176.955 123.195 176.704 124.726C176.453 126.257 175.755 127.676 174.988 129.024C174.687 129.553 174.412 130.317 174.896 130.687C175.137 130.871 175.469 130.858 175.771 130.836C177.866 130.687 180.191 130.428 181.565 128.839C182.539 127.713 182.808 126.151 182.961 124.669C183.252 121.839 183.261 118.98 182.986 116.149C180.853 114.81 178.627 113.618 176.331 112.584C176.33 112.584 176.096 116.636 174.667 118.488Z" fill="black"/>
</g>
</g>
<mask id="mask3_3_7170" style="mask-type:luminance" maskUnits="userSpaceOnUse" x="167" y="96" width="17" height="35">
<path d="M170.724 96.3024C170.724 96.3024 166.244 100.157 167.182 107.241L171.453 119.847C171.453 119.847 169.056 129.743 169.473 129.848C169.89 129.952 181.349 132.14 182.287 128.181C183.225 124.222 183.225 116.305 182.704 113.388C182.183 110.471 176.661 100.105 176.505 100.001C176.558 100.001 170.322 96.3377 170.724 96.3024Z" fill="white"/>
</mask>
<g mask="url(#mask3_3_7170)">
<g opacity="0.2">
<path d="M173.068 98.0081C173.186 98.2045 173.17 98.4498 173.211 98.6752C173.37 99.5651 174.325 100.023 175.04 100.576C176.135 101.422 176.792 102.697 177.501 103.886C178.209 105.075 179.076 106.276 180.361 106.789C179.415 104.785 178.455 102.761 177.073 101.027C175.691 99.2942 173.827 97.8534 171.655 97.4087L173.068 98.0081Z" fill="black"/>
</g>
</g>
<path d="M170.724 96.3024C170.724 96.3024 166.244 100.157 167.182 107.241L171.453 119.847C171.453 119.847 169.056 129.743 169.473 129.848C169.89 129.952 181.349 132.14 182.287 128.181C183.225 124.222 183.225 116.305 182.704 113.388C182.183 110.471 176.661 100.105 176.505 100.001C176.558 100.001 170.322 96.3377 170.724 96.3024Z" stroke="#263238" stroke-linecap="round" stroke-linejoin="round"/>
<path d="M187.6 112.867C187.339 113.717 185.534 114.918 184.229 115.693C183.41 116.18 182.39 116.174 181.577 115.678L176.453 112.554C176.453 112.554 169.16 107.451 169.16 103.49C169.16 99.5328 172.288 99.3223 172.288 99.3223C172.288 99.3223 174.266 99.1149 175.62 101.614C176.295 102.862 177.982 104.808 179.449 106.445C180.834 107.988 182.023 109.26 181.994 109.415C181.921 109.424 181.907 109.429 181.974 109.429C181.985 109.429 181.994 109.426 181.994 109.415C182.34 109.377 183.997 109.278 184.905 109.382C185.016 109.394 185.119 109.409 185.204 109.429C186.142 109.637 188.018 111.514 187.6 112.867Z" fill="#6E4BA6"/>
<mask id="mask4_3_7170" style="mask-type:luminance" maskUnits="userSpaceOnUse" x="169" y="99" width="19" height="18">
<path d="M187.6 112.867C187.339 113.717 185.534 114.918 184.229 115.693C183.41 116.18 182.39 116.174 181.577 115.678L176.453 112.554C176.453 112.554 169.16 107.451 169.16 103.49C169.16 99.5328 172.288 99.3223 172.288 99.3223C172.288 99.3223 174.266 99.1149 175.62 101.614C176.295 102.862 177.982 104.808 179.449 106.445C180.834 107.988 182.023 109.26 181.994 109.415C181.921 109.424 181.907 109.429 181.974 109.429C181.985 109.429 181.994 109.426 181.994 109.415C182.34 109.377 183.997 109.278 184.905 109.382C185.016 109.394 185.119 109.409 185.204 109.429C186.142 109.637 188.018 111.514 187.6 112.867Z" fill="white"/>
</mask>
<g mask="url(#mask4_3_7170)">
<path opacity="0.2" d="M179.776 112.625C180.175 112.499 180.489 112.137 180.557 111.724C180.695 112.37 180.833 113.016 180.971 113.661C181.133 113.321 181.295 112.981 181.458 112.641C181.718 113.021 182.247 113.19 182.68 113.032C182.81 113.378 183.152 113.634 183.52 113.661C183.199 112.651 183.718 111.443 184.671 110.981C185.015 110.814 185.43 110.714 185.631 110.389C185.994 109.802 185.298 109.056 184.611 108.997C183.923 108.938 183.262 109.259 182.575 109.323C181.888 109.387 181.036 109.001 181.05 108.31C180.934 108.24 180.817 108.17 180.7 108.1C178.976 105.889 177.251 103.679 175.527 101.469C175.092 100.912 172.853 98.6313 173.107 100.305C173.277 101.422 175.071 103.254 175.672 104.27C176.065 104.937 179.936 112.575 179.776 112.625Z" fill="black"/>
</g>
<path d="M187.6 112.867C187.339 113.717 185.534 114.918 184.229 115.693C183.41 116.18 182.39 116.174 181.577 115.678L176.453 112.554C176.453 112.554 169.16 107.451 169.16 103.49C169.16 99.5328 172.288 99.3223 172.288 99.3223C172.288 99.3223 174.266 99.1149 175.62 101.614C176.295 102.862 177.982 104.808 179.449 106.445C180.834 107.988 182.023 109.26 181.994 109.415C181.921 109.424 181.907 109.429 181.974 109.429C181.985 109.429 181.994 109.426 181.994 109.415C182.34 109.377 183.997 109.278 184.905 109.382C185.016 109.394 185.119 109.409 185.204 109.429C186.142 109.637 188.018 111.514 187.6 112.867Z" stroke="#263238" stroke-linecap="round" stroke-linejoin="round"/>
<path d="M173.669 120.583C175.031 120.566 176.393 120.396 177.718 120.077" stroke="#263238" stroke-linecap="round" stroke-linejoin="round"/>
<path d="M172.705 119.699C174.43 119.043 176.028 118.057 177.388 116.809" stroke="#263238" stroke-linecap="round" stroke-linejoin="round"/>
<path d="M181.458 112.688C181.545 112.108 181.631 111.528 181.718 110.948C181.744 110.775 181.824 110.555 181.999 110.564C182.143 110.572 182.218 110.736 182.26 110.874C182.5 111.647 182.74 112.421 182.98 113.195" stroke="#263238" stroke-linecap="round" stroke-linejoin="round"/>
<path d="M168.807 106.92C169.726 107.769 170.846 108.397 172.05 108.738" stroke="#263238" stroke-linecap="round" stroke-linejoin="round"/>
<path d="M169.836 97.0667C171.479 97.8087 175.086 100.034 175.896 102.16" stroke="#263238" stroke-linecap="round" stroke-linejoin="round"/>
<path d="M181.995 109.415C181.995 109.427 181.986 109.43 181.974 109.43C181.906 109.43 181.921 109.424 181.995 109.415Z" stroke="#263238" stroke-miterlimit="10" stroke-linecap="round" stroke-linejoin="round"/>
<path d="M181.995 109.415C181.995 109.427 181.986 109.43 181.974 109.43C181.906 109.43 181.921 109.424 181.995 109.415Z" stroke="#263238" stroke-miterlimit="10" stroke-linecap="round" stroke-linejoin="round"/>
<path d="M182.16 109.266C182.356 108.82 182.184 108.479 181.716 108.343C181.47 107.84 181.337 107.66 180.754 107.862C180.451 107.887 180.172 108.343 180.704 108.444C180.767 108.456 181.26 108.475 181.311 108.52C181.459 108.652 181.007 108.672 181.26 109.077C181.404 109.306 181.872 109.231 181.861 109.229C181.935 109.23 182.16 109.266 182.16 109.266Z" fill="white" stroke="#263238" stroke-miterlimit="10" stroke-linecap="round" stroke-linejoin="round"/>
<path d="M180.343 86.187C179.585 86.7962 178.545 86.941 177.578 86.8388C176.611 86.7365 175.687 86.4213 174.741 86.1955C174.208 86.0677 172.581 85.6162 172.113 86.0549C171.708 86.4341 171.98 88.0273 171.976 88.5683C171.976 88.7302 171.972 88.9006 171.891 89.0412C171.738 89.3096 171.371 89.3607 171.158 89.5865C170.873 89.8932 170.967 90.3831 171.103 90.775C171.444 91.7548 171.938 92.675 172.568 93.4929C172.108 93.855 171.384 93.5525 171.077 93.0541C170.775 92.5514 170.749 91.938 170.664 91.3629C170.583 90.8006 170.434 90.251 170.225 89.7228C170.255 88.5683 170.285 87.4181 170.315 86.2637C170.311 86.4724 171.154 86.5321 171.269 86.5108C170.962 86.1827 170.468 86.3574 170.196 85.9186C169.944 85.5224 170.042 84.9303 170.144 84.5C170.311 83.7844 170.498 83.0516 170.924 82.451C171.35 81.8503 172.454 81.256 173.517 81.3574C174.32 81.4341 175.911 82.114 175.942 82.1613C175.946 82.1673 177.675 81.956 178.578 82.0156C179.481 82.071 180.517 82.8092 180.978 83.5927C181.467 84.4319 181.101 85.5821 180.343 86.187Z" fill="#263238" stroke="#263238" stroke-miterlimit="10" stroke-linecap="round" stroke-linejoin="round"/>
<path d="M171.598 84.6982C171.354 83.6966 171.85 82.5613 172.75 82.0591C172.394 82.6252 172.285 83.3413 172.457 83.9876C172.524 83.7043 172.73 83.4572 172.996 83.3401C172.989 83.5258 172.982 83.7115 172.974 83.8977C173.2 83.8866 173.413 83.7379 173.501 83.5305C173.521 83.6945 173.54 83.8585 173.56 84.0229C173.648 83.9096 173.737 83.7967 173.825 83.6834C173.744 84.0822 173.834 84.5128 174.067 84.846C174.092 84.1243 174.574 83.4389 175.245 83.1718C174.998 83.5786 174.94 84.0958 175.092 84.5469C175.284 84.4766 175.411 84.2619 175.382 84.0596C175.343 84.3339 175.408 84.6215 175.561 84.8528C175.621 84.7173 175.682 84.5823 175.743 84.4468C175.682 84.7978 175.837 85.177 176.126 85.3849C175.866 84.4562 176.562 83.3793 177.515 83.2344C177.038 83.6638 176.842 84.3791 177.032 84.9917C177.223 85.6043 177.79 86.0822 178.427 86.1653" stroke="#BFBFBF" stroke-linecap="round" stroke-linejoin="round"/>
<path d="M175.604 95.3553C175.57 95.3553 175.535 95.3536 175.499 95.3493C174.902 95.2807 174.416 94.692 174.112 94.2064C174.11 94.203 174.107 94.1996 174.105 94.1966C174.046 94.1348 174.038 94.0526 174.072 93.9738C174.106 93.8962 174.189 93.8553 174.274 93.8553C174.275 93.8553 174.277 93.8553 174.278 93.8553C174.928 93.8639 176.061 93.9129 176.679 93.941C176.762 93.9448 176.836 93.9968 176.867 94.0743C176.893 94.1386 176.885 94.2111 176.849 94.2681C176.523 94.9693 176.082 95.3553 175.604 95.3553Z" fill="#263238"/>
<path d="M174.275 94.0683C174.91 94.0769 176.017 94.1237 176.669 94.1535C176.669 94.1535 176.669 94.1535 176.665 94.1578C176.474 94.5749 176.115 95.1423 175.604 95.1423C175.577 95.1423 175.55 95.1406 175.523 95.1376C175.003 95.078 174.556 94.5156 174.288 94.0854C174.283 94.0811 174.279 94.0726 174.275 94.0683ZM174.275 93.6423C174.104 93.6423 173.949 93.745 173.883 93.903C173.823 94.0449 173.845 94.2064 173.936 94.3265C174.266 94.8505 174.797 95.4831 175.475 95.561C175.518 95.5662 175.561 95.5687 175.604 95.5687C176.172 95.5687 176.684 95.135 177.047 94.3478C177.1 94.2421 177.109 94.1169 177.065 94.0032C177.004 93.8451 176.858 93.7361 176.689 93.7284C176.193 93.7058 174.966 93.6521 174.281 93.6428C174.279 93.6423 174.277 93.6423 174.275 93.6423Z" fill="#263238"/>
<path d="M176.678 94.4045C176.188 94.3819 174.974 94.3286 174.291 94.3193C174.218 94.3184 174.15 94.2801 174.112 94.2179C173.937 93.9337 173.832 93.7067 173.827 93.6969C173.796 93.6291 173.802 93.5499 173.844 93.4881C173.884 93.4293 173.95 93.3944 174.021 93.3944C174.024 93.3944 176.869 93.5439 176.869 93.5439C176.934 93.5473 176.994 93.5802 177.031 93.633C177.069 93.6862 177.08 93.7531 177.062 93.8157C177.06 93.8242 177 94.0266 176.88 94.2822C176.845 94.3567 176.769 94.404 176.687 94.404C176.685 94.4045 176.681 94.4045 176.678 94.4045Z" fill="white"/>
<path d="M174.021 93.6079L176.858 93.757C176.858 93.757 176.803 93.9487 176.688 94.1915C176.036 94.1617 174.928 94.1148 174.294 94.1063C174.123 93.8294 174.021 93.6079 174.021 93.6079ZM174.021 93.1819C173.88 93.1819 173.748 93.2517 173.668 93.3689C173.585 93.4924 173.572 93.6509 173.634 93.7864C173.639 93.7962 173.749 94.0343 173.931 94.3295C174.007 94.4539 174.142 94.5302 174.288 94.5323C174.96 94.5412 176.177 94.5945 176.668 94.6171C176.675 94.6175 176.681 94.6175 176.688 94.6175C176.852 94.6175 177.002 94.5234 177.073 94.3738C177.199 94.1076 177.261 93.898 177.268 93.8754C177.304 93.7506 177.281 93.616 177.205 93.5103C177.13 93.4047 177.01 93.3387 176.881 93.3318L174.044 93.1827C174.036 93.1823 174.029 93.1819 174.021 93.1819Z" fill="#263238"/>
</svg>
