<svg width="50" height="50" viewBox="0 0 50 50" fill="none" xmlns="http://www.w3.org/2000/svg">
<path d="M42.7246 37.7539L29.9707 25L42.7246 12.2461C44.1016 10.8691 44.1016 8.65234 42.7246 7.27539C41.3477 5.89844 39.1309 5.89844 37.7539 7.27539L25 20.0293L12.2461 7.27539C10.8691 5.89844 8.65234 5.89844 7.27539 7.27539C5.89844 8.65234 5.89844 10.8691 7.27539 12.2461L20.0293 25L7.27539 37.7539C5.89844 39.1309 5.89844 41.3477 7.27539 42.7246C8.65234 44.1016 10.8691 44.1016 12.2461 42.7246L25 29.9707L37.7539 42.7246C39.1309 44.1016 41.3477 44.1016 42.7246 42.7246C44.0918 41.3477 44.0918 39.1211 42.7246 37.7539Z" fill="#F8F2FF"/>
</svg>
