<svg width="362" height="292" viewBox="0 0 362 292" fill="none" xmlns="http://www.w3.org/2000/svg">
<path d="M251.667 18.5023C246.25 18.5023 89.8594 18.5023 26.8933 18.5023C12.5339 18.5023 1 30.1428 1 44.5023V265C1 279.359 12.6406 291 27 291H335C349.359 291 361 279.359 361 265V18.5023C361 18.5023 361 18.5023 361 18.5023C361 18.5023 361 1.00002 346.455 1C334.334 0.99999 266.94 1.00018 266.939 1.00018C266.939 1.00018 266.939 1.00018 266.939 1.00018C258.455 1.00022 258.455 18.5023 251.667 18.5023Z" stroke="#F8F2FF" stroke-width="2"/>
</svg>
